<svg xmlns="http://www.w3.org/2000/svg" xmlns:xlink="http://www.w3.org/1999/xlink" width="200" zoomAndPan="magnify" viewBox="0 0 150 149.999998" height="200" preserveAspectRatio="xMidYMid meet" version="1.0"><defs><g/><clipPath id="38df1b75a7"><path d="M 21.144531 15 L 129 15 L 129 118 L 21.144531 118 Z M 21.144531 15 " clip-rule="nonzero"/></clipPath></defs><g clip-path="url(#38df1b75a7)"><path fill="#ec58c2" d="M 128.386719 85.867188 C 127.808594 86.253906 126.925781 85.929688 126.667969 85.265625 C 125.25 85.503906 122.460938 85.4375 120.011719 82.414062 C 116.574219 78.148438 114.320312 76.496094 110.753906 77.074219 C 108.648438 77.417969 106.394531 76.625 104.890625 75.898438 C 104.308594 77.3125 103.625 78.664062 102.828125 79.96875 C 103.859375 81.257812 105.75 83.101562 109.144531 85.203125 C 115.265625 88.953125 120.546875 92.707031 121.449219 97.058594 C 121.535156 97.039062 121.621094 97.039062 121.707031 97.039062 C 122.71875 97.039062 122.609375 98.132812 122.609375 98.132812 C 122.632812 98.796875 121.34375 99.589844 120.785156 98.925781 C 120.355469 98.410156 120.527344 97.574219 121.105469 97.210938 C 119.859375 95.238281 116.058594 90.027344 108.800781 86.574219 C 105.46875 84.988281 103.34375 83.078125 101.96875 81.300781 C 101.347656 82.199219 100.703125 83.078125 99.992188 83.9375 C 100.960938 86.46875 103.367188 91.464844 108.089844 94.058594 C 110.605469 95.429688 112.148438 96.265625 113.09375 96.800781 C 113.265625 96.417969 113.632812 96.117188 114.125 96.136719 C 115.136719 96.136719 115.027344 97.230469 115.027344 97.230469 C 115.050781 97.894531 113.761719 98.6875 113.203125 98.023438 C 112.988281 97.765625 112.921875 97.402344 113.007812 97.058594 C 110.304688 96.050781 104.910156 93.863281 103.171875 91.761719 C 101.648438 89.917969 100.078125 86.832031 99.15625 84.902344 C 97.652344 86.574219 96 88.074219 94.238281 89.40625 C 95.140625 92.257812 97.222656 96.546875 102.140625 99.527344 C 107.726562 102.914062 109.25 106.34375 109.679688 108.101562 C 109.765625 108.082031 109.851562 108.082031 109.9375 108.082031 C 110.949219 108.082031 110.839844 109.175781 110.839844 109.175781 C 110.863281 109.839844 109.574219 110.632812 109.015625 109.96875 C 108.605469 109.496094 108.757812 108.703125 109.25 108.316406 C 107.960938 106.324219 104.652344 101.777344 100.335938 100.339844 C 96.664062 99.117188 94.28125 93.800781 93.078125 90.285156 C 91.832031 91.164062 90.542969 91.933594 89.210938 92.621094 C 90.5 94.445312 91.660156 96.929688 90.90625 99.503906 C 89.621094 104.007812 88.761719 108.1875 90.542969 110.761719 C 90.734375 110.609375 90.972656 110.503906 91.25 110.503906 C 92.261719 110.503906 92.152344 111.597656 92.152344 111.597656 C 92.175781 112.261719 90.886719 113.054688 90.328125 112.390625 C 89.941406 111.941406 90.050781 111.234375 90.457031 110.804688 C 89.277344 109.390625 87.472656 106.023438 89.46875 99.652344 C 90.242188 97.167969 89.46875 95.023438 87.945312 93.222656 C 85.515625 94.359375 83.046875 95.171875 80.621094 95.601562 C 81.050781 97.679688 81.179688 100.234375 80.253906 102.71875 C 78.707031 106.792969 79.761719 110.097656 81.027344 111.917969 C 81.222656 111.703125 81.5 111.554688 81.867188 111.554688 C 82.875 111.554688 82.769531 112.648438 82.769531 112.648438 C 82.769531 112.882812 82.617188 113.121094 82.402344 113.3125 C 82.425781 113.335938 82.445312 113.335938 82.445312 113.335938 C 82.425781 113.335938 82.425781 113.3125 82.402344 113.3125 C 81.972656 113.675781 81.308594 113.871094 80.964844 113.441406 C 80.621094 113.035156 80.664062 112.390625 81.007812 111.984375 C 79.675781 110.417969 77.976562 107.4375 78.75 102.914062 C 79.246094 100.0625 79.09375 97.679688 78.75 95.878906 C 76.367188 96.050781 73.703125 95.730469 70.953125 94.957031 C 70.632812 96.351562 70.480469 98.066406 70.78125 100.019531 C 71.640625 105.53125 69.324219 108.167969 65.949219 110.117188 C 63.542969 111.488281 63.199219 114.34375 63.199219 115.863281 C 63.265625 115.84375 63.351562 115.84375 63.4375 115.84375 C 64.445312 115.84375 64.339844 116.9375 64.339844 116.9375 C 64.359375 117.601562 63.070312 118.394531 62.515625 117.730469 C 62.0625 117.195312 62.277344 116.292969 62.921875 115.972656 C 62.535156 114.578125 62.277344 111.8125 65.003906 109.046875 C 68.871094 105.144531 70.265625 102.71875 69.28125 99.269531 C 68.828125 97.703125 69.042969 95.945312 69.429688 94.507812 C 66.851562 93.652344 64.210938 92.40625 61.699219 90.863281 C 60.472656 91.976562 58.777344 93.972656 56.929688 97.382812 C 53.515625 103.683594 50.078125 109.175781 45.804688 110.355469 C 45.824219 110.441406 45.847656 110.523438 45.847656 110.609375 C 45.910156 111.617188 44.816406 111.574219 44.816406 111.574219 C 44.171875 111.617188 43.289062 110.398438 43.914062 109.816406 C 44.386719 109.367188 45.265625 109.496094 45.652344 110.03125 C 47.542969 108.679688 52.546875 104.585938 55.578125 97.144531 C 56.972656 93.757812 58.734375 91.527344 60.453125 90.046875 C 59.570312 89.449219 58.691406 88.824219 57.832031 88.160156 C 55.40625 89.234375 50.421875 91.933594 48.058594 96.867188 C 46.835938 99.441406 46.082031 101.027344 45.609375 102.011719 C 45.996094 102.164062 46.320312 102.507812 46.339844 103 C 46.40625 104.007812 45.308594 103.964844 45.308594 103.964844 C 44.664062 104.007812 43.785156 102.785156 44.40625 102.207031 C 44.664062 101.96875 45.007812 101.882812 45.351562 101.949219 C 46.210938 99.183594 48.082031 93.695312 50.078125 91.847656 C 51.882812 90.175781 54.976562 88.398438 56.84375 87.390625 C 55.167969 85.972656 53.578125 84.410156 52.183594 82.714844 C 49.390625 83.722656 45.03125 86.039062 42.257812 91.269531 C 39.1875 97.039062 35.835938 98.753906 34.121094 99.269531 C 34.140625 99.355469 34.164062 99.441406 34.164062 99.527344 C 34.226562 100.535156 33.132812 100.492188 33.132812 100.492188 C 32.488281 100.535156 31.605469 99.3125 32.230469 98.730469 C 32.679688 98.304688 33.476562 98.390625 33.90625 98.859375 C 35.835938 97.46875 40.175781 93.886719 41.359375 89.511719 C 42.410156 85.675781 47.867188 82.949219 51.300781 81.578125 C 50.378906 80.335938 49.519531 79.046875 48.8125 77.699219 C 47.050781 79.199219 44.472656 80.722656 41.660156 80.078125 C 37.082031 79.046875 32.851562 78.425781 30.382812 80.378906 C 30.554688 80.550781 30.660156 80.785156 30.683594 81.0625 C 30.746094 82.070312 29.652344 82.027344 29.652344 82.027344 C 29.007812 82.070312 28.128906 80.851562 28.75 80.269531 C 29.179688 79.863281 29.886719 79.929688 30.339844 80.3125 C 31.671875 79.046875 34.9375 77.054688 41.421875 78.683594 C 44.148438 79.371094 46.382812 78.277344 48.167969 76.410156 C 47.113281 74.179688 46.382812 71.800781 46.039062 69.3125 C 43.847656 70.066406 40.820312 70.621094 37.8125 69.679688 C 33.648438 68.390625 30.425781 69.613281 28.664062 70.964844 C 28.898438 71.15625 29.070312 71.414062 29.09375 71.78125 C 29.15625 72.789062 28.0625 72.746094 28.0625 72.746094 C 27.828125 72.765625 27.589844 72.617188 27.375 72.402344 C 27.355469 72.421875 27.355469 72.445312 27.355469 72.445312 C 27.355469 72.421875 27.375 72.421875 27.375 72.402344 C 26.988281 71.996094 26.753906 71.351562 27.160156 70.964844 C 27.546875 70.601562 28.191406 70.601562 28.621094 70.921875 C 30.125 69.484375 32.980469 67.640625 37.578125 68.15625 C 41.207031 68.5625 44 68.007812 45.890625 67.363281 C 45.804688 65.625 45.933594 63.847656 46.296875 62.023438 C 46.40625 61.421875 46.535156 60.84375 46.683594 60.285156 C 45.050781 59.792969 42.730469 59.449219 40.027344 60.03125 C 34.570312 61.207031 31.777344 59.042969 29.652344 55.804688 C 28.128906 53.488281 25.269531 53.316406 23.746094 53.402344 C 23.765625 53.46875 23.789062 53.554688 23.789062 53.640625 C 23.851562 54.648438 22.757812 54.605469 22.757812 54.605469 C 22.113281 54.648438 21.234375 53.425781 21.855469 52.847656 C 22.347656 52.375 23.273438 52.523438 23.636719 53.148438 C 25.011719 52.675781 27.761719 52.246094 30.683594 54.820312 C 34.808594 58.441406 37.320312 59.6875 40.714844 58.507812 C 42.882812 57.757812 45.503906 58.292969 47.09375 58.785156 C 47.867188 56.171875 48.875 53.855469 50.035156 51.816406 C 49.304688 50.53125 47.542969 48.195312 43.460938 45.34375 C 37.578125 41.226562 32.53125 37.171875 31.863281 32.796875 C 31.734375 32.667969 31.648438 32.667969 31.542969 32.667969 C 30.53125 32.605469 30.703125 31.535156 30.703125 31.535156 C 30.726562 30.867188 32.058594 30.160156 32.574219 30.847656 C 32.960938 31.382812 32.746094 32.21875 32.144531 32.542969 C 33.261719 34.578125 36.761719 40.003906 43.785156 43.882812 C 47.457031 45.898438 49.5625 48.257812 50.765625 50.316406 C 51.34375 49.394531 51.96875 48.535156 52.613281 47.722656 C 51.988281 45.492188 49.949219 39.59375 44.921875 36.445312 C 42.496094 34.921875 41.015625 34 40.089844 33.421875 C 39.898438 33.785156 39.511719 34.0625 39.015625 34.042969 C 38.007812 33.976562 38.179688 32.90625 38.179688 32.90625 C 38.199219 32.242188 39.53125 31.535156 40.046875 32.21875 C 40.261719 32.5 40.285156 32.863281 40.199219 33.183594 C 42.839844 34.34375 48.082031 36.851562 49.691406 39.039062 C 51.238281 41.140625 52.742188 44.742188 53.492188 46.648438 C 53.921875 46.15625 54.351562 45.707031 54.78125 45.257812 C 55.941406 44.078125 57.1875 43.027344 58.496094 42.0625 C 57.808594 39.167969 55.984375 34.664062 51.171875 31.339844 C 45.78125 27.632812 44.472656 24.113281 44.171875 22.335938 C 44.085938 22.355469 44 22.355469 43.914062 22.355469 C 42.902344 22.292969 43.074219 21.21875 43.074219 21.21875 C 43.097656 20.554688 44.429688 19.847656 44.945312 20.535156 C 45.308594 21.027344 45.136719 21.820312 44.621094 22.164062 C 45.78125 24.242188 48.832031 28.960938 53.042969 30.652344 C 56.671875 32.113281 58.734375 37.644531 59.722656 41.226562 C 60.988281 40.390625 62.320312 39.660156 63.695312 39.039062 C 62.492188 37.152344 61.503906 34.578125 62.386719 32.046875 C 63.953125 27.632812 65.046875 23.515625 63.414062 20.832031 C 63.222656 20.984375 62.964844 21.070312 62.6875 21.046875 C 61.675781 20.984375 61.847656 19.910156 61.847656 19.910156 C 61.871094 19.246094 63.199219 18.539062 63.714844 19.226562 C 64.058594 19.699219 63.929688 20.40625 63.480469 20.789062 C 64.597656 22.269531 66.1875 25.742188 63.800781 31.984375 C 62.878906 34.429688 63.523438 36.613281 64.941406 38.503906 C 67.324219 37.539062 69.816406 36.871094 72.371094 36.507812 C 72.070312 34.429688 72.09375 31.875 73.167969 29.453125 C 74.949219 25.464844 74.113281 22.121094 72.953125 20.234375 C 72.738281 20.449219 72.457031 20.578125 72.09375 20.554688 C 71.082031 20.492188 71.253906 19.417969 71.253906 19.417969 C 71.253906 19.183594 71.425781 18.945312 71.664062 18.777344 C 71.640625 18.753906 71.621094 18.753906 71.621094 18.753906 C 71.640625 18.753906 71.640625 18.777344 71.664062 18.777344 C 72.09375 18.433594 72.78125 18.28125 73.125 18.734375 C 73.445312 19.160156 73.359375 19.804688 72.996094 20.191406 C 74.242188 21.839844 75.746094 24.90625 74.714844 29.390625 C 74.070312 32.15625 74.070312 34.492188 74.285156 36.316406 C 74.972656 36.25 75.660156 36.230469 76.347656 36.207031 C 78.449219 36.164062 80.449219 36.292969 82.316406 36.59375 C 82.53125 35.480469 82.617188 34.191406 82.488281 32.777344 C 81.953125 27.222656 84.421875 24.714844 87.902344 22.976562 C 90.371094 21.734375 90.886719 18.925781 90.992188 17.402344 C 90.90625 17.402344 90.84375 17.425781 90.757812 17.425781 C 89.75 17.359375 89.921875 16.289062 89.921875 16.289062 C 89.941406 15.625 91.273438 14.914062 91.789062 15.601562 C 92.195312 16.160156 91.9375 17.058594 91.292969 17.339844 C 91.59375 18.753906 91.703125 21.542969 88.804688 24.136719 C 84.722656 27.800781 83.175781 30.140625 83.96875 33.65625 C 84.207031 34.726562 84.140625 35.84375 83.949219 36.894531 C 88.265625 37.792969 91.960938 39.511719 95.074219 41.890625 C 96.472656 41.074219 98.660156 39.402344 101.324219 35.992188 C 105.75 30.355469 110.089844 25.53125 114.511719 25.121094 C 114.511719 25.035156 114.492188 24.949219 114.511719 24.863281 C 114.640625 23.855469 115.695312 24.09375 115.695312 24.09375 C 116.339844 24.15625 117.003906 25.507812 116.296875 25.980469 C 115.738281 26.34375 114.921875 26.066406 114.621094 25.464844 C 112.515625 26.472656 106.910156 29.667969 102.636719 36.464844 C 100.617188 39.746094 98.339844 41.675781 96.320312 42.8125 C 97.117188 43.496094 97.867188 44.226562 98.574219 45 C 100.980469 44.441406 106.738281 42.683594 110.046875 37.988281 C 111.699219 35.648438 112.707031 34.214844 113.332031 33.335938 C 112.964844 33.121094 112.707031 32.734375 112.773438 32.242188 C 112.902344 31.234375 113.953125 31.46875 113.953125 31.46875 C 114.597656 31.535156 115.265625 32.882812 114.554688 33.355469 C 114.277344 33.550781 113.890625 33.570312 113.566406 33.441406 C 112.257812 36.015625 109.464844 41.117188 107.1875 42.597656 C 105.019531 44.011719 101.390625 45.320312 99.414062 45.964844 C 100.789062 47.613281 101.992188 49.414062 102.980469 51.324219 C 105.835938 50.917969 110.90625 49.480469 114.792969 44.484375 C 118.785156 39.316406 122.394531 38.203125 124.179688 37.988281 C 124.179688 37.902344 124.15625 37.816406 124.179688 37.730469 C 124.308594 36.722656 125.359375 36.957031 125.359375 36.957031 C 126.003906 37.023438 126.667969 38.375 125.960938 38.84375 C 125.445312 39.1875 124.671875 38.972656 124.328125 38.4375 C 122.203125 39.488281 117.304688 42.253906 115.394531 46.371094 C 113.609375 50.167969 107.1875 51.925781 103.644531 52.632812 C 104.332031 54.089844 104.890625 55.613281 105.363281 57.199219 C 107.359375 55.871094 110.519531 54.390625 113.503906 55.632812 C 117.84375 57.433594 121.902344 58.742188 124.652344 57.261719 C 124.523438 57.070312 124.4375 56.8125 124.480469 56.535156 C 124.609375 55.527344 125.660156 55.761719 125.660156 55.761719 C 126.304688 55.828125 126.96875 57.179688 126.261719 57.648438 C 125.765625 57.972656 125.058594 57.800781 124.714844 57.328125 C 123.191406 58.355469 119.625 59.75 113.503906 57.050781 C 110.648438 55.785156 108.027344 56.792969 105.769531 58.699219 C 106.136719 60.160156 106.414062 61.636719 106.609375 63.160156 C 106.714844 63.976562 106.78125 64.789062 106.800781 65.605469 C 109.121094 65.152344 112.472656 64.984375 115.523438 66.546875 C 119.410156 68.542969 122.804688 67.878906 124.757812 66.828125 C 124.566406 66.613281 124.4375 66.3125 124.480469 65.949219 C 124.609375 64.941406 125.660156 65.175781 125.660156 65.175781 C 125.894531 65.195312 126.109375 65.367188 126.28125 65.625 C 126.304688 65.605469 126.304688 65.582031 126.304688 65.582031 C 126.304688 65.605469 126.28125 65.605469 126.28125 65.625 C 126.605469 66.078125 126.710938 66.761719 126.261719 67.085938 C 125.808594 67.382812 125.1875 67.253906 124.800781 66.890625 C 123.082031 68.050781 119.945312 69.378906 115.523438 68.09375 C 111.761719 67.019531 108.757812 67.148438 106.78125 67.535156 C 106.671875 69.9375 106.199219 72.230469 105.46875 74.4375 C 106.996094 75.144531 109.101562 75.8125 111.71875 75.683594 C 117.304688 75.445312 119.667969 78.0625 121.214844 81.601562 C 122.308594 84.128906 125.101562 84.796875 126.605469 84.964844 C 126.605469 84.878906 126.605469 84.816406 126.605469 84.730469 C 126.734375 83.722656 127.785156 83.957031 127.785156 83.957031 C 128.453125 84.023438 129.117188 85.375 128.386719 85.867188 Z M 128.386719 85.867188 " fill-opacity="1" fill-rule="nonzero"/><path fill="#ec58c2" d="M 96.320312 42.8125 C 95.933594 42.488281 95.546875 42.167969 95.140625 41.847656 C 96.535156 41.03125 98.726562 39.359375 101.390625 35.949219 C 105.8125 30.3125 110.152344 25.488281 114.578125 25.078125 C 114.578125 24.992188 114.554688 24.90625 114.578125 24.820312 C 114.707031 23.8125 115.757812 24.050781 115.757812 24.050781 C 116.402344 24.113281 117.070312 25.464844 116.359375 25.9375 C 115.800781 26.300781 114.984375 26.023438 114.683594 25.421875 C 112.578125 26.429688 106.972656 29.625 102.699219 36.421875 C 100.617188 39.746094 98.339844 41.675781 96.320312 42.8125 Z M 114.792969 44.484375 C 110.925781 49.480469 105.855469 50.917969 102.980469 51.324219 C 103.195312 51.753906 103.410156 52.203125 103.625 52.632812 C 107.167969 51.945312 113.589844 50.1875 115.371094 46.371094 C 117.304688 42.253906 122.179688 39.488281 124.308594 38.4375 C 124.652344 38.972656 125.402344 39.1875 125.9375 38.84375 C 126.648438 38.375 126.003906 37 125.335938 36.957031 C 125.335938 36.957031 124.265625 36.722656 124.15625 37.730469 C 124.15625 37.816406 124.15625 37.902344 124.15625 37.988281 C 122.394531 38.203125 118.808594 39.316406 114.792969 44.484375 Z M 98.574219 44.976562 C 98.875 45.300781 99.15625 45.621094 99.433594 45.941406 C 101.410156 45.300781 105.039062 43.992188 107.210938 42.574219 C 109.488281 41.097656 112.277344 35.992188 113.589844 33.421875 C 113.910156 33.527344 114.277344 33.527344 114.578125 33.335938 C 115.285156 32.863281 114.640625 31.492188 113.976562 31.449219 C 113.976562 31.449219 112.902344 31.210938 112.792969 32.21875 C 112.730469 32.710938 112.988281 33.097656 113.351562 33.3125 C 112.730469 34.191406 111.71875 35.628906 110.066406 37.964844 C 106.738281 42.660156 100.980469 44.421875 98.574219 44.976562 Z M 115.523438 68.070312 C 119.945312 69.335938 123.105469 68.007812 124.800781 66.871094 C 125.1875 67.253906 125.808594 67.363281 126.261719 67.0625 C 126.734375 66.761719 126.605469 66.078125 126.28125 65.605469 C 126.28125 65.582031 126.304688 65.582031 126.304688 65.5625 C 126.304688 65.5625 126.28125 65.582031 126.28125 65.605469 C 126.109375 65.367188 125.894531 65.175781 125.660156 65.152344 C 125.660156 65.152344 124.585938 64.917969 124.480469 65.925781 C 124.4375 66.269531 124.566406 66.570312 124.757812 66.804688 C 122.78125 67.855469 119.410156 68.519531 115.523438 66.527344 C 112.472656 64.984375 109.121094 65.152344 106.800781 65.582031 C 106.824219 66.226562 106.800781 66.871094 106.78125 67.492188 C 108.757812 67.148438 111.761719 67 115.523438 68.070312 Z M 125.660156 55.742188 C 125.660156 55.742188 124.585938 55.503906 124.480469 56.511719 C 124.4375 56.792969 124.523438 57.050781 124.652344 57.242188 C 121.878906 58.742188 117.84375 57.414062 113.503906 55.613281 C 110.519531 54.390625 107.382812 55.847656 105.363281 57.179688 C 105.511719 57.671875 105.640625 58.164062 105.769531 58.679688 C 108.003906 56.769531 110.648438 55.761719 113.503906 57.027344 C 119.625 59.730469 123.167969 58.335938 124.714844 57.304688 C 125.078125 57.777344 125.789062 57.949219 126.261719 57.628906 C 126.96875 57.179688 126.324219 55.804688 125.660156 55.742188 Z M 127.808594 83.957031 C 127.808594 83.957031 126.734375 83.722656 126.625 84.730469 C 126.625 84.816406 126.625 84.878906 126.625 84.964844 C 125.121094 84.796875 122.332031 84.128906 121.234375 81.601562 C 119.6875 78.039062 117.328125 75.445312 111.742188 75.683594 C 109.121094 75.789062 106.996094 75.144531 105.492188 74.4375 C 105.320312 74.953125 105.125 75.445312 104.933594 75.941406 C 106.4375 76.667969 108.691406 77.460938 110.796875 77.117188 C 114.363281 76.519531 116.617188 78.191406 120.054688 82.457031 C 122.480469 85.480469 125.292969 85.523438 126.710938 85.308594 C 126.96875 85.972656 127.851562 86.296875 128.429688 85.910156 C 129.117188 85.375 128.453125 84.023438 127.808594 83.957031 Z M 70.976562 94.894531 C 70.460938 94.742188 69.945312 94.59375 69.429688 94.421875 C 69.066406 95.859375 68.828125 97.597656 69.28125 99.183594 C 70.265625 102.65625 68.871094 105.078125 65.003906 108.960938 C 62.277344 111.726562 62.535156 114.492188 62.921875 115.886719 C 62.300781 116.207031 62.085938 117.128906 62.515625 117.644531 C 63.070312 118.289062 64.339844 117.492188 64.339844 116.851562 C 64.339844 116.851562 64.445312 115.757812 63.4375 115.757812 C 63.351562 115.757812 63.285156 115.757812 63.199219 115.777344 C 63.199219 114.257812 63.542969 111.425781 65.949219 110.03125 C 69.324219 108.101562 71.640625 105.445312 70.78125 99.933594 C 70.503906 98.003906 70.652344 96.289062 70.976562 94.894531 Z M 121.75 97.039062 C 121.664062 97.039062 121.578125 97.058594 121.492188 97.058594 C 120.570312 92.730469 115.285156 88.976562 109.1875 85.203125 C 105.792969 83.101562 103.902344 81.277344 102.871094 79.96875 C 102.613281 80.398438 102.335938 80.828125 102.054688 81.257812 C 103.429688 83.035156 105.554688 84.964844 108.886719 86.53125 C 116.144531 89.984375 119.945312 95.195312 121.191406 97.167969 C 120.613281 97.53125 120.441406 98.390625 120.871094 98.882812 C 121.429688 99.527344 122.695312 98.730469 122.695312 98.089844 C 122.632812 98.132812 122.761719 97.039062 121.75 97.039062 Z M 114.167969 96.09375 C 113.675781 96.09375 113.308594 96.394531 113.136719 96.757812 C 112.191406 96.246094 110.648438 95.410156 108.132812 94.015625 C 103.410156 91.421875 100.980469 86.425781 100.035156 83.894531 C 99.757812 84.214844 99.5 84.539062 99.199219 84.839844 C 100.121094 86.789062 101.691406 89.875 103.214844 91.699219 C 104.953125 93.777344 110.347656 95.988281 113.050781 96.996094 C 112.964844 97.339844 113.03125 97.703125 113.246094 97.960938 C 113.804688 98.605469 115.070312 97.808594 115.070312 97.167969 C 115.070312 97.1875 115.179688 96.09375 114.167969 96.09375 Z M 109.960938 108.039062 C 109.875 108.039062 109.789062 108.058594 109.703125 108.058594 C 109.292969 106.324219 107.769531 102.871094 102.164062 99.484375 C 97.265625 96.503906 95.160156 92.214844 94.257812 89.363281 C 93.871094 89.664062 93.484375 89.941406 93.078125 90.21875 C 94.28125 93.734375 96.664062 99.054688 100.335938 100.277344 C 104.652344 101.710938 107.960938 106.257812 109.25 108.253906 C 108.757812 108.636719 108.628906 109.433594 109.015625 109.902344 C 109.574219 110.546875 110.839844 109.753906 110.839844 109.109375 C 110.863281 109.109375 110.992188 108.039062 109.960938 108.039062 Z M 91.292969 110.441406 C 91.015625 110.441406 90.777344 110.546875 90.585938 110.695312 C 88.78125 108.125 89.640625 103.964844 90.949219 99.441406 C 91.703125 96.867188 90.542969 94.378906 89.253906 92.558594 C 88.847656 92.769531 88.4375 92.964844 88.03125 93.15625 C 89.554688 94.957031 90.328125 97.101562 89.554688 99.589844 C 87.535156 105.957031 89.339844 109.324219 90.542969 110.738281 C 90.113281 111.148438 90.027344 111.875 90.414062 112.328125 C 90.972656 112.96875 92.238281 112.175781 92.238281 111.53125 C 92.195312 111.53125 92.324219 110.441406 91.292969 110.441406 Z M 81.929688 111.511719 C 81.585938 111.511719 81.285156 111.660156 81.09375 111.875 C 79.824219 110.054688 78.792969 106.75 80.320312 102.675781 C 81.265625 100.191406 81.136719 97.640625 80.683594 95.558594 C 80.425781 95.601562 80.148438 95.644531 79.890625 95.6875 C 79.523438 95.730469 79.160156 95.773438 78.773438 95.816406 C 79.117188 97.640625 79.265625 99.996094 78.773438 102.847656 C 78 107.394531 79.675781 110.355469 81.027344 111.917969 C 80.707031 112.347656 80.640625 112.96875 80.984375 113.378906 C 81.351562 113.804688 82.015625 113.613281 82.425781 113.25 C 82.445312 113.25 82.445312 113.269531 82.46875 113.269531 C 82.46875 113.269531 82.445312 113.269531 82.425781 113.25 C 82.640625 113.054688 82.8125 112.796875 82.789062 112.582031 C 82.832031 112.605469 82.941406 111.511719 81.929688 111.511719 Z M 55.554688 97.058594 C 52.503906 104.480469 47.523438 108.574219 45.632812 109.925781 C 45.246094 109.367188 44.363281 109.261719 43.890625 109.710938 C 43.269531 110.289062 44.148438 111.53125 44.792969 111.46875 C 44.792969 111.46875 45.890625 111.511719 45.824219 110.503906 C 45.824219 110.417969 45.804688 110.332031 45.78125 110.246094 C 50.054688 109.066406 53.515625 103.597656 56.90625 97.273438 C 58.753906 93.84375 60.453125 91.871094 61.675781 90.757812 C 61.246094 90.5 60.816406 90.21875 60.410156 89.941406 C 58.710938 91.421875 56.929688 93.652344 55.554688 97.058594 Z M 52.183594 82.609375 C 51.882812 82.242188 51.582031 81.859375 51.28125 81.472656 C 47.84375 82.84375 42.386719 85.566406 41.335938 89.40625 C 40.132812 93.777344 35.792969 97.339844 33.882812 98.753906 C 33.453125 98.28125 32.660156 98.195312 32.207031 98.625 C 31.585938 99.203125 32.464844 100.449219 33.109375 100.382812 C 33.109375 100.382812 34.207031 100.425781 34.140625 99.417969 C 34.140625 99.332031 34.121094 99.246094 34.097656 99.160156 C 35.816406 98.648438 39.167969 96.929688 42.238281 91.164062 C 45.03125 85.929688 49.367188 83.617188 52.183594 82.609375 Z M 57.808594 88.074219 C 57.488281 87.816406 57.164062 87.5625 56.84375 87.28125 C 54.953125 88.289062 51.859375 90.089844 50.078125 91.742188 C 48.082031 93.585938 46.210938 99.097656 45.351562 101.839844 C 45.007812 101.777344 44.644531 101.863281 44.40625 102.097656 C 43.785156 102.675781 44.664062 103.921875 45.308594 103.855469 C 45.308594 103.855469 46.40625 103.898438 46.339844 102.890625 C 46.320312 102.398438 45.996094 102.054688 45.609375 101.90625 C 46.082031 100.941406 46.835938 99.355469 48.058594 96.757812 C 50.378906 91.828125 55.382812 89.148438 57.808594 88.074219 Z M 41.636719 79.96875 C 44.449219 80.59375 47.027344 79.089844 48.789062 77.589844 C 48.554688 77.160156 48.339844 76.734375 48.144531 76.304688 C 46.363281 78.167969 44.128906 79.261719 41.402344 78.578125 C 34.914062 76.949219 31.648438 78.941406 30.316406 80.207031 C 29.886719 79.820312 29.15625 79.757812 28.726562 80.164062 C 28.105469 80.742188 28.984375 81.984375 29.628906 81.921875 C 29.628906 81.921875 30.726562 81.964844 30.660156 80.957031 C 30.640625 80.679688 30.53125 80.441406 30.359375 80.269531 C 32.832031 78.320312 37.039062 78.941406 41.636719 79.96875 Z M 29.585938 55.699219 C 31.714844 58.9375 34.507812 61.101562 39.960938 59.921875 C 42.667969 59.34375 44.988281 59.6875 46.621094 60.179688 C 46.75 59.664062 46.878906 59.152344 47.027344 58.636719 C 45.4375 58.144531 42.839844 57.605469 40.648438 58.355469 C 37.234375 59.535156 34.742188 58.292969 30.617188 54.667969 C 27.699219 52.117188 24.949219 52.523438 23.574219 52.996094 C 23.207031 52.394531 22.285156 52.226562 21.789062 52.695312 C 21.167969 53.277344 22.046875 54.519531 22.691406 54.453125 C 22.691406 54.453125 23.789062 54.496094 23.722656 53.488281 C 23.722656 53.402344 23.703125 53.339844 23.679688 53.253906 C 25.207031 53.210938 28.085938 53.382812 29.585938 55.699219 Z M 29.050781 71.671875 C 29.027344 71.328125 28.855469 71.050781 28.621094 70.859375 C 30.382812 69.484375 33.605469 68.261719 37.769531 69.570312 C 40.777344 70.515625 43.804688 69.9375 45.996094 69.207031 C 45.910156 68.5625 45.867188 67.921875 45.824219 67.277344 C 43.933594 67.921875 41.144531 68.457031 37.511719 68.070312 C 32.9375 67.578125 30.058594 69.421875 28.554688 70.835938 C 28.105469 70.535156 27.484375 70.515625 27.097656 70.878906 C 26.6875 71.265625 26.925781 71.910156 27.3125 72.316406 C 27.3125 72.335938 27.289062 72.335938 27.289062 72.359375 C 27.289062 72.359375 27.289062 72.335938 27.3125 72.316406 C 27.527344 72.53125 27.785156 72.660156 28 72.660156 C 28 72.636719 29.09375 72.679688 29.050781 71.671875 Z M 63.738281 39.058594 C 64.144531 38.867188 64.574219 38.695312 65.003906 38.523438 C 63.585938 36.636719 62.941406 34.429688 63.867188 32.003906 C 66.25 25.765625 64.640625 22.292969 63.542969 20.8125 C 63.996094 20.425781 64.125 19.71875 63.78125 19.246094 C 63.265625 18.5625 61.933594 19.289062 61.914062 19.933594 C 61.914062 19.933594 61.742188 21.003906 62.75 21.070312 C 63.027344 21.089844 63.285156 21.003906 63.480469 20.855469 C 65.132812 23.535156 64.015625 27.652344 62.449219 32.070312 C 61.546875 34.597656 62.535156 37.171875 63.738281 39.058594 Z M 88.867188 24.113281 C 91.765625 21.519531 91.660156 18.734375 91.359375 17.316406 C 92.003906 17.015625 92.28125 16.136719 91.851562 15.582031 C 91.335938 14.894531 90.007812 15.625 89.984375 16.265625 C 89.984375 16.265625 89.8125 17.339844 90.820312 17.402344 C 90.90625 17.402344 90.972656 17.402344 91.058594 17.382812 C 90.972656 18.902344 90.457031 21.714844 87.964844 22.957031 C 84.507812 24.695312 82.039062 27.203125 82.574219 32.753906 C 82.703125 34.171875 82.617188 35.457031 82.402344 36.570312 C 82.960938 36.65625 83.496094 36.742188 84.011719 36.871094 C 84.226562 35.820312 84.292969 34.707031 84.035156 33.632812 C 83.261719 30.117188 84.785156 27.78125 88.867188 24.113281 Z M 31.542969 32.667969 C 31.628906 32.667969 31.714844 32.667969 31.800781 32.648438 C 32.464844 37.023438 37.511719 41.074219 43.398438 45.191406 C 47.480469 48.042969 49.238281 50.359375 49.96875 51.667969 C 50.226562 51.195312 50.507812 50.746094 50.785156 50.316406 C 49.582031 48.257812 47.480469 45.898438 43.804688 43.882812 C 36.761719 40.003906 33.28125 34.578125 32.164062 32.542969 C 32.746094 32.21875 32.980469 31.363281 32.59375 30.847656 C 32.078125 30.160156 30.746094 30.890625 30.726562 31.535156 C 30.726562 31.535156 30.53125 32.605469 31.542969 32.667969 Z M 39.058594 34.042969 C 39.554688 34.0625 39.941406 33.804688 40.132812 33.421875 C 41.058594 34 42.539062 34.921875 44.964844 36.445312 C 49.992188 39.59375 52.03125 45.492188 52.65625 47.722656 C 52.957031 47.359375 53.234375 46.992188 53.535156 46.648438 C 52.785156 44.742188 51.28125 41.140625 49.734375 39.039062 C 48.125 36.851562 42.882812 34.34375 40.242188 33.183594 C 40.347656 32.863281 40.304688 32.5 40.089844 32.21875 C 39.574219 31.535156 38.242188 32.261719 38.222656 32.90625 C 38.222656 32.90625 38.050781 33.976562 39.058594 34.042969 Z M 43.957031 22.378906 C 44.042969 22.378906 44.128906 22.378906 44.214844 22.355469 C 44.515625 24.113281 45.847656 27.652344 51.214844 31.363281 C 56.027344 34.683594 57.851562 39.1875 58.539062 42.082031 C 58.949219 41.804688 59.335938 41.523438 59.765625 41.246094 C 58.777344 37.664062 56.714844 32.132812 53.085938 30.675781 C 48.875 28.980469 45.824219 24.265625 44.664062 22.183594 C 45.179688 21.820312 45.375 21.046875 44.988281 20.554688 C 44.472656 19.867188 43.140625 20.597656 43.117188 21.242188 C 43.117188 21.242188 42.945312 22.3125 43.957031 22.378906 Z M 73.1875 18.734375 C 72.84375 18.28125 72.179688 18.433594 71.726562 18.777344 C 71.707031 18.777344 71.707031 18.753906 71.683594 18.753906 C 71.683594 18.753906 71.707031 18.753906 71.726562 18.777344 C 71.492188 18.96875 71.320312 19.203125 71.320312 19.417969 C 71.320312 19.417969 71.148438 20.492188 72.15625 20.554688 C 72.5 20.578125 72.800781 20.449219 73.015625 20.234375 C 74.175781 22.140625 75.015625 25.464844 73.230469 29.453125 C 72.15625 31.875 72.136719 34.40625 72.4375 36.507812 C 73.082031 36.421875 73.703125 36.335938 74.347656 36.292969 C 74.132812 34.472656 74.132812 32.132812 74.777344 29.367188 C 75.808594 24.886719 74.304688 21.820312 73.058594 20.167969 C 73.425781 19.785156 73.511719 19.160156 73.1875 18.734375 Z M 73.1875 18.734375 " fill-opacity="1" fill-rule="nonzero"/></g><path fill="#ed8490" d="M 106.800781 65.605469 C 106.78125 64.789062 106.714844 63.976562 106.609375 63.160156 C 106.414062 61.636719 106.136719 60.160156 105.769531 58.699219 C 105.640625 58.1875 105.511719 57.691406 105.363281 57.199219 C 104.890625 55.632812 104.332031 54.089844 103.644531 52.632812 C 103.429688 52.183594 103.214844 51.753906 103 51.324219 C 101.992188 49.394531 100.808594 47.59375 99.433594 45.964844 C 99.15625 45.640625 98.875 45.300781 98.574219 45 C 97.867188 44.226562 97.117188 43.496094 96.320312 42.8125 C 95.933594 42.488281 95.546875 42.167969 95.140625 41.847656 C 92.046875 39.488281 88.332031 37.75 84.011719 36.851562 C 83.476562 36.742188 82.941406 36.636719 82.402344 36.550781 C 80.511719 36.273438 78.515625 36.121094 76.433594 36.164062 C 75.746094 36.1875 75.058594 36.207031 74.371094 36.273438 C 73.726562 36.316406 73.082031 36.402344 72.457031 36.488281 C 69.902344 36.851562 67.390625 37.515625 65.027344 38.480469 C 64.597656 38.652344 64.1875 38.824219 63.757812 39.015625 C 62.386719 39.636719 61.054688 40.367188 59.785156 41.203125 C 59.378906 41.484375 58.96875 41.738281 58.5625 42.039062 C 57.25 42.984375 56.003906 44.054688 54.847656 45.234375 C 54.417969 45.683594 53.988281 46.136719 53.558594 46.628906 C 53.257812 46.972656 52.957031 47.335938 52.675781 47.699219 C 52.03125 48.515625 51.410156 49.371094 50.828125 50.296875 C 50.550781 50.722656 50.269531 51.175781 50.011719 51.644531 C 48.855469 53.683594 47.84375 56 47.070312 58.613281 C 46.921875 59.109375 46.792969 59.621094 46.664062 60.160156 C 46.535156 60.714844 46.382812 61.292969 46.277344 61.894531 C 45.910156 63.71875 45.804688 65.496094 45.867188 67.234375 C 45.890625 67.878906 45.953125 68.519531 46.039062 69.164062 C 46.363281 71.652344 47.113281 74.03125 48.167969 76.261719 C 48.382812 76.691406 48.574219 77.117188 48.8125 77.546875 C 49.539062 78.898438 50.378906 80.207031 51.300781 81.429688 C 51.601562 81.816406 51.902344 82.199219 52.203125 82.566406 C 53.601562 84.257812 55.167969 85.824219 56.863281 87.238281 C 57.1875 87.519531 57.507812 87.777344 57.832031 88.03125 C 58.691406 88.699219 59.550781 89.339844 60.453125 89.917969 C 60.882812 90.199219 61.289062 90.476562 61.71875 90.734375 C 64.253906 92.277344 66.875 93.5 69.453125 94.378906 C 69.964844 94.550781 70.480469 94.722656 70.996094 94.851562 C 73.746094 95.625 76.410156 95.945312 78.792969 95.773438 C 79.179688 95.75 79.546875 95.707031 79.910156 95.644531 C 80.167969 95.601562 80.449219 95.558594 80.707031 95.515625 C 83.132812 95.085938 85.601562 94.273438 88.03125 93.136719 C 88.4375 92.941406 88.847656 92.730469 89.253906 92.535156 C 90.5625 91.847656 91.851562 91.078125 93.121094 90.199219 C 93.507812 89.917969 93.914062 89.640625 94.300781 89.339844 C 96.0625 88.011719 97.714844 86.488281 99.21875 84.839844 C 99.5 84.515625 99.777344 84.214844 100.058594 83.894531 C 100.765625 83.058594 101.433594 82.179688 102.035156 81.257812 C 102.3125 80.828125 102.59375 80.398438 102.851562 79.96875 C 103.644531 78.664062 104.332031 77.3125 104.910156 75.898438 C 105.105469 75.402344 105.296875 74.910156 105.46875 74.394531 C 106.222656 72.207031 106.671875 69.894531 106.78125 67.492188 C 106.800781 66.890625 106.824219 66.246094 106.800781 65.605469 Z M 98.339844 53.511719 C 98.46875 53.511719 98.46875 53.703125 98.339844 53.703125 C 96.945312 53.683594 95.613281 54.519531 95.011719 55.761719 C 94.96875 55.871094 94.796875 55.785156 94.859375 55.675781 C 95.484375 54.367188 96.878906 53.511719 98.339844 53.511719 Z M 90.222656 79.714844 C 88.417969 79.261719 86.828125 78.148438 85.753906 76.648438 C 84.65625 75.101562 84.078125 73.195312 84.011719 71.308594 C 84.011719 71.179688 84.183594 71.179688 84.207031 71.308594 C 84.25 72.359375 84.441406 73.386719 84.785156 74.375 C 85.410156 76.089844 86.527344 77.632812 88.074219 78.621094 C 89.597656 79.5625 91.464844 79.992188 93.226562 79.585938 C 93.335938 79.5625 93.398438 79.734375 93.269531 79.757812 C 92.28125 79.96875 91.230469 79.949219 90.222656 79.714844 Z M 91.617188 83.894531 C 90.050781 83.722656 88.4375 84.410156 87.515625 85.695312 C 87.449219 85.78125 87.277344 85.695312 87.363281 85.609375 C 88.332031 84.28125 90.007812 83.53125 91.636719 83.722656 C 91.722656 83.722656 91.722656 83.914062 91.617188 83.894531 Z M 92.5625 61.917969 C 91.722656 61.894531 90.863281 62.003906 90.050781 62.238281 C 88.632812 62.667969 87.363281 63.460938 86.398438 64.574219 C 85.472656 65.625 84.828125 66.933594 84.550781 68.328125 C 84.527344 68.433594 84.355469 68.390625 84.378906 68.285156 C 84.527344 67.492188 84.808594 66.699219 85.195312 65.992188 C 85.882812 64.726562 86.914062 63.632812 88.160156 62.882812 C 89.46875 62.089844 91.015625 61.703125 92.5625 61.746094 C 92.691406 61.746094 92.691406 61.917969 92.5625 61.917969 Z M 86.914062 43.820312 C 88.246094 42.917969 90.007812 42.726562 91.464844 43.414062 C 91.574219 43.457031 91.488281 43.625 91.378906 43.5625 C 90.605469 43.199219 89.707031 43.113281 88.867188 43.242188 C 87.320312 43.496094 85.96875 44.503906 85.453125 45.984375 C 84.9375 47.464844 85.195312 49.203125 86.226562 50.402344 C 86.3125 50.488281 86.183594 50.617188 86.097656 50.53125 C 85.496094 49.824219 85.128906 48.945312 85.042969 48.042969 C 84.828125 46.414062 85.515625 44.761719 86.914062 43.820312 Z M 84.550781 56.8125 C 84.871094 57.585938 85.066406 58.421875 85 59.277344 C 84.894531 60.652344 83.992188 62.046875 82.554688 62.324219 C 82.445312 62.34375 82.382812 62.175781 82.511719 62.152344 C 83.242188 62.003906 83.863281 61.550781 84.269531 60.929688 C 85.128906 59.621094 84.894531 57.949219 84.25 56.621094 C 83.691406 55.460938 82.683594 54.285156 81.308594 54.21875 C 81.179688 54.21875 81.179688 54.027344 81.308594 54.027344 C 82.082031 54.046875 82.789062 54.433594 83.328125 54.96875 C 83.882812 55.484375 84.269531 56.128906 84.550781 56.8125 Z M 82.703125 40.582031 C 82.746094 40.882812 82.769531 41.203125 82.746094 41.503906 C 82.683594 42.148438 82.445312 42.769531 82.039062 43.242188 C 81.652344 43.691406 81.09375 44.011719 80.535156 44.164062 C 79.417969 44.441406 77.785156 44.011719 77.632812 42.683594 C 77.613281 42.574219 77.804688 42.574219 77.828125 42.683594 C 77.914062 43.371094 78.578125 43.839844 79.203125 43.992188 C 80.277344 44.269531 81.480469 43.777344 82.101562 42.875 C 82.511719 42.277344 82.660156 41.566406 82.597656 40.859375 C 82.554688 40.347656 82.382812 39.851562 82.125 39.425781 C 82.058594 39.316406 82.230469 39.230469 82.273438 39.339844 C 82.46875 39.722656 82.640625 40.152344 82.703125 40.582031 Z M 76.21875 60.929688 C 76.175781 60.824219 76.324219 60.738281 76.367188 60.84375 C 77.054688 62.324219 78.578125 63.375 80.210938 63.480469 C 80.320312 63.480469 80.339844 63.675781 80.210938 63.675781 C 78.515625 63.546875 76.925781 62.472656 76.21875 60.929688 Z M 60.796875 68.972656 C 60.839844 69.078125 60.667969 69.121094 60.625 69.015625 C 60.300781 68.132812 60.171875 67.210938 60.257812 66.289062 C 60.367188 64.703125 61.054688 63.179688 62.191406 62.046875 C 63.285156 60.972656 64.703125 60.308594 66.230469 60.136719 C 66.335938 60.117188 66.335938 60.308594 66.230469 60.328125 C 65.390625 60.414062 64.574219 60.671875 63.84375 61.058594 C 62.515625 61.765625 61.460938 62.925781 60.902344 64.316406 C 60.300781 65.796875 60.257812 67.46875 60.796875 68.972656 Z M 72.308594 62.753906 C 71.492188 61.679688 70.265625 60.953125 68.957031 60.714844 C 68.851562 60.695312 68.894531 60.523438 69 60.542969 C 70.375 60.800781 71.621094 61.574219 72.480469 62.667969 C 72.542969 62.753906 72.394531 62.839844 72.308594 62.753906 Z M 71.277344 54.285156 C 71.363281 54.21875 71.46875 54.367188 71.363281 54.433594 C 70.375 55.140625 69.324219 55.742188 68.164062 56.105469 C 67.175781 56.40625 66.144531 56.535156 65.132812 56.339844 C 64.101562 56.148438 63.199219 55.589844 62.40625 54.925781 C 61.613281 54.242188 60.902344 53.445312 60.238281 52.652344 C 59.59375 51.859375 59.035156 50.980469 58.925781 49.929688 C 58.90625 49.824219 59.097656 49.824219 59.121094 49.929688 C 59.226562 51.089844 59.957031 52.054688 60.6875 52.910156 C 62 54.410156 63.5 56.019531 65.585938 56.234375 C 67.648438 56.449219 69.664062 55.460938 71.277344 54.285156 Z M 61.871094 71.070312 C 62.578125 72.25 63.757812 73.085938 65.070312 73.496094 C 67.648438 74.308594 70.4375 73.34375 72.414062 71.628906 C 73.402344 70.773438 74.242188 69.699219 74.691406 68.457031 C 75.164062 67.148438 75.1875 65.667969 74.585938 64.402344 C 74.542969 64.296875 74.691406 64.210938 74.734375 64.316406 C 75.402344 65.777344 75.335938 67.46875 74.691406 68.90625 C 74.15625 70.148438 73.230469 71.222656 72.179688 72.058594 C 71.082031 72.9375 69.773438 73.582031 68.398438 73.839844 C 67.109375 74.09375 65.777344 73.988281 64.554688 73.496094 C 63.394531 73.023438 62.363281 72.230469 61.699219 71.136719 C 61.65625 71.070312 61.804688 70.988281 61.871094 71.070312 Z M 75.25 58.699219 C 75.378906 58.164062 75.507812 57.648438 75.703125 57.136719 C 76.003906 56.296875 76.453125 55.503906 77.097656 54.90625 C 77.699219 54.347656 78.429688 53.960938 79.246094 53.917969 C 79.375 53.917969 79.351562 54.089844 79.246094 54.113281 C 78.214844 54.199219 77.3125 54.820312 76.6875 55.632812 C 76.003906 56.554688 75.660156 57.671875 75.402344 58.765625 C 75.402344 58.851562 75.230469 58.808594 75.25 58.699219 Z M 80.492188 38.480469 C 80.621094 38.480469 80.621094 38.652344 80.492188 38.671875 C 79.007812 38.738281 77.675781 39.917969 77.417969 41.375 C 77.398438 41.484375 77.226562 41.441406 77.246094 41.332031 C 77.527344 39.765625 78.945312 38.542969 80.492188 38.480469 Z M 68.570312 40.347656 C 69.300781 40.347656 70.03125 40.476562 70.71875 40.753906 C 72.542969 41.546875 73.832031 43.242188 74.433594 45.105469 C 74.433594 45.128906 74.457031 45.148438 74.457031 45.171875 C 74.5625 45.511719 74.648438 45.855469 74.714844 46.199219 C 75.101562 48.472656 74.585938 50.894531 73.1875 52.71875 C 73.125 52.804688 72.953125 52.71875 73.039062 52.632812 C 73.8125 51.625 74.304688 50.445312 74.542969 49.203125 C 74.800781 47.828125 74.691406 46.394531 74.261719 45.0625 C 74.261719 45.042969 74.242188 45 74.242188 44.976562 C 73.984375 44.207031 73.597656 43.457031 73.082031 42.8125 C 72.371094 41.910156 71.425781 41.140625 70.332031 40.753906 C 69.28125 40.390625 68.183594 40.476562 67.109375 40.644531 C 66.789062 40.6875 66.488281 40.753906 66.164062 40.816406 C 66.058594 40.839844 65.992188 40.667969 66.121094 40.644531 C 66.402344 40.601562 66.660156 40.539062 66.9375 40.496094 C 67.453125 40.433594 68.011719 40.347656 68.570312 40.347656 Z M 58.882812 45.683594 C 58.992188 45.386719 59.121094 45.105469 59.269531 44.828125 C 59.550781 44.3125 59.894531 43.820312 60.28125 43.390625 C 61.269531 42.320312 62.558594 41.523438 63.996094 41.269531 C 64.101562 41.246094 64.167969 41.417969 64.039062 41.441406 C 63.394531 41.546875 62.792969 41.78125 62.214844 42.082031 C 61.484375 42.46875 60.839844 43.003906 60.300781 43.605469 C 60 43.949219 59.722656 44.335938 59.507812 44.71875 C 59.011719 45.597656 58.691406 46.585938 58.648438 47.59375 C 58.648438 47.722656 58.453125 47.722656 58.453125 47.59375 C 58.539062 46.972656 58.667969 46.308594 58.882812 45.683594 Z M 49.152344 58.699219 C 49.304688 58.144531 49.539062 57.605469 49.863281 57.136719 C 50.421875 56.277344 51.214844 55.570312 52.117188 55.097656 C 52.203125 55.054688 52.289062 55.011719 52.398438 54.96875 C 53.214844 54.582031 54.09375 54.390625 54.996094 54.433594 C 55.125 54.433594 55.125 54.625 54.996094 54.625 C 54.4375 54.605469 53.878906 54.667969 53.34375 54.820312 C 53.019531 54.90625 52.699219 55.035156 52.398438 55.183594 C 52.332031 55.207031 52.269531 55.25 52.203125 55.269531 C 50.828125 56 49.734375 57.261719 49.324219 58.785156 C 49.304688 58.871094 49.132812 58.828125 49.152344 58.699219 Z M 52.675781 65.324219 C 51.988281 65.132812 51.34375 64.769531 50.808594 64.316406 C 49.796875 63.503906 49.089844 62.34375 48.855469 61.082031 C 48.832031 60.929688 48.8125 60.78125 48.789062 60.628906 C 48.769531 60.5 48.960938 60.523438 48.980469 60.628906 C 49.003906 60.824219 49.023438 60.996094 49.066406 61.1875 C 49.367188 62.515625 50.226562 63.738281 51.367188 64.488281 C 52.054688 64.941406 52.828125 65.195312 53.601562 65.28125 C 55.792969 65.539062 58.132812 64.445312 59.378906 62.582031 C 60.152344 61.421875 60.453125 60.007812 60.085938 58.65625 C 59.765625 57.371094 58.90625 56.214844 57.660156 55.675781 C 57.550781 55.632812 57.636719 55.460938 57.746094 55.527344 C 57.894531 55.589844 58.066406 55.675781 58.21875 55.761719 C 59.398438 56.46875 60.171875 57.777344 60.367188 59.128906 C 60.582031 60.566406 60.109375 61.980469 59.207031 63.117188 C 58.238281 64.316406 56.820312 65.132812 55.296875 65.410156 C 54.71875 65.519531 54.117188 65.539062 53.535156 65.476562 C 53.234375 65.453125 52.957031 65.410156 52.675781 65.324219 Z M 59.441406 72.679688 C 59.140625 71.996094 58.519531 71.457031 57.789062 71.265625 C 57.679688 71.242188 57.722656 71.050781 57.832031 71.09375 C 58.691406 71.308594 59.378906 71.972656 59.679688 72.808594 C 60.28125 74.480469 58.925781 76.023438 57.617188 76.882812 C 56.132812 77.847656 54.160156 78.492188 52.441406 77.761719 C 52.332031 77.71875 52.375 77.546875 52.484375 77.589844 C 53.386719 77.976562 54.375 77.957031 55.296875 77.71875 C 56.132812 77.503906 56.90625 77.117188 57.617188 76.648438 C 58.28125 76.195312 58.882812 75.640625 59.269531 74.933594 C 59.679688 74.222656 59.765625 73.410156 59.441406 72.679688 Z M 50.894531 76.003906 C 50.871094 75.8125 50.871094 75.617188 50.871094 75.425781 C 50.871094 74.933594 50.914062 74.460938 51 73.988281 C 51.171875 73.214844 51.472656 72.464844 51.945312 71.84375 C 52.160156 71.542969 52.398438 71.285156 52.675781 71.050781 C 53.515625 70.34375 54.566406 69.914062 55.664062 69.957031 C 55.792969 69.957031 55.792969 70.148438 55.664062 70.148438 C 55.0625 70.128906 54.460938 70.257812 53.921875 70.492188 C 53.042969 70.878906 52.3125 71.566406 51.816406 72.378906 C 51.753906 72.488281 51.710938 72.574219 51.644531 72.679688 C 51.257812 73.472656 51.066406 74.332031 51.042969 75.210938 C 51.042969 75.488281 51.042969 75.746094 51.066406 76.003906 C 51.085938 76.109375 50.914062 76.109375 50.894531 76.003906 Z M 56.113281 81.964844 C 56.757812 80.464844 58.496094 79.5625 60.085938 79.949219 C 60.195312 79.96875 60.152344 80.164062 60.042969 80.121094 C 58.5625 79.757812 56.886719 80.59375 56.285156 82.007812 C 56.242188 82.136719 56.070312 82.09375 56.113281 81.964844 Z M 59.980469 86.058594 C 58.519531 86.273438 57.058594 85.308594 56.585938 83.914062 C 56.542969 83.808594 56.734375 83.746094 56.757812 83.871094 C 56.992188 84.625 57.550781 85.222656 58.238281 85.589844 C 59.507812 86.230469 61.074219 85.84375 61.914062 84.730469 C 62.769531 83.617188 62.621094 81.941406 61.65625 80.933594 C 61.570312 80.851562 61.699219 80.722656 61.785156 80.808594 C 62.363281 81.40625 62.664062 82.242188 62.664062 83.078125 C 62.664062 84.582031 61.484375 85.867188 59.980469 86.058594 Z M 67.925781 90.476562 C 67.046875 89.597656 66.335938 88.527344 65.886719 87.367188 C 65.863281 87.304688 65.84375 87.261719 65.820312 87.195312 C 65.777344 87.066406 65.714844 86.9375 65.671875 86.8125 C 65.21875 85.4375 65.113281 83.957031 65.414062 82.542969 C 65.433594 82.4375 65.605469 82.480469 65.585938 82.585938 C 65.433594 83.359375 65.390625 84.152344 65.476562 84.945312 C 65.542969 85.695312 65.734375 86.445312 66.015625 87.175781 C 66.015625 87.195312 66.035156 87.21875 66.035156 87.238281 C 66.765625 89.148438 68.164062 90.796875 69.988281 91.742188 C 70.09375 91.804688 70.007812 91.957031 69.902344 91.890625 C 69.171875 91.550781 68.507812 91.054688 67.925781 90.476562 Z M 66.25 80.398438 C 66.1875 80.507812 66.035156 80.421875 66.101562 80.3125 C 66.488281 79.628906 66.980469 78.984375 67.519531 78.425781 C 69.6875 76.238281 72.695312 75.230469 75.679688 74.695312 C 75.789062 74.675781 75.851562 74.847656 75.722656 74.867188 C 74.863281 75.015625 74.003906 75.210938 73.167969 75.46875 C 70.375 76.28125 67.691406 77.804688 66.25 80.398438 Z M 79.695312 91.785156 C 79.632812 91.828125 79.566406 91.847656 79.503906 91.890625 C 78.964844 92.191406 78.40625 92.429688 77.828125 92.644531 C 76.582031 93.09375 75.25 93.351562 73.917969 93.351562 C 73.789062 93.351562 73.789062 93.15625 73.917969 93.15625 C 74.15625 93.15625 74.414062 93.15625 74.648438 93.136719 C 75.703125 93.070312 76.753906 92.835938 77.742188 92.472656 C 78.320312 92.257812 78.878906 92 79.417969 91.722656 C 79.675781 91.59375 79.910156 91.441406 80.148438 91.292969 C 81.09375 90.691406 81.953125 89.960938 82.683594 89.125 C 82.832031 88.953125 82.984375 88.761719 83.132812 88.589844 C 83.371094 88.269531 83.605469 87.945312 83.820312 87.582031 C 84.765625 85.996094 85.238281 84.152344 85.085938 82.308594 C 84.957031 80.527344 84.226562 78.8125 82.960938 77.527344 C 81.800781 76.347656 80.234375 75.574219 78.558594 75.488281 C 78.429688 75.488281 78.429688 75.296875 78.558594 75.296875 C 78.773438 75.316406 78.964844 75.316406 79.179688 75.359375 C 80.855469 75.617188 82.402344 76.539062 83.476562 77.804688 C 84.679688 79.21875 85.28125 81.042969 85.28125 82.886719 C 85.28125 84.773438 84.699219 86.597656 83.648438 88.160156 C 83.539062 88.332031 83.414062 88.484375 83.304688 88.632812 C 83.15625 88.824219 83.003906 89.019531 82.855469 89.210938 C 81.953125 90.242188 80.878906 91.121094 79.695312 91.785156 Z M 93.3125 87.304688 C 93.097656 87.625 92.882812 87.945312 92.625 88.226562 C 92.582031 88.269531 92.5625 88.3125 92.519531 88.355469 C 92.304688 88.589844 92.066406 88.804688 91.789062 88.976562 C 91.445312 89.191406 91.058594 89.320312 90.648438 89.382812 C 90.242188 89.449219 89.8125 89.46875 89.382812 89.492188 C 88.953125 89.511719 88.523438 89.511719 88.09375 89.40625 C 87.429688 89.210938 86.761719 88.632812 86.847656 87.882812 C 86.871094 87.777344 87.042969 87.777344 87.042969 87.882812 C 87 88.269531 87.191406 88.632812 87.472656 88.867188 C 87.792969 89.148438 88.203125 89.253906 88.609375 89.296875 C 88.996094 89.339844 89.382812 89.296875 89.769531 89.277344 C 90.15625 89.253906 90.542969 89.210938 90.929688 89.125 C 91.550781 88.953125 92.046875 88.589844 92.476562 88.117188 C 92.519531 88.074219 92.5625 88.011719 92.605469 87.96875 C 92.820312 87.691406 93.011719 87.410156 93.207031 87.109375 C 93.355469 86.875 93.527344 86.617188 93.65625 86.359375 C 93.699219 86.273438 93.722656 86.1875 93.765625 86.101562 C 93.9375 85.546875 93.808594 84.710938 93.097656 84.582031 C 92.992188 84.558594 93.035156 84.386719 93.140625 84.410156 C 93.507812 84.472656 93.765625 84.753906 93.914062 85.074219 C 94.066406 85.4375 94.042969 85.84375 93.914062 86.210938 C 93.851562 86.382812 93.765625 86.554688 93.679688 86.703125 C 93.570312 86.917969 93.441406 87.109375 93.3125 87.304688 Z M 92.691406 52.183594 C 92.582031 52.226562 92.539062 52.054688 92.648438 52.011719 C 93.207031 51.796875 93.699219 51.410156 94.085938 50.9375 C 94.773438 50.058594 95.054688 48.921875 94.882812 47.828125 C 94.6875 46.671875 94.042969 45.621094 93.183594 44.828125 C 93.097656 44.742188 93.226562 44.613281 93.3125 44.699219 C 93.828125 45.171875 94.28125 45.726562 94.601562 46.371094 C 95.140625 47.441406 95.3125 48.6875 94.925781 49.824219 C 94.515625 50.875 93.742188 51.773438 92.691406 52.183594 Z M 94.773438 57.199219 C 95.140625 58.101562 95.847656 58.871094 96.707031 59.320312 C 97.480469 59.730469 98.359375 59.859375 99.199219 59.644531 C 100.015625 59.449219 100.765625 58.980469 101.238281 58.269531 C 102.140625 56.941406 101.777344 54.925781 100.359375 54.113281 C 100.25 54.046875 100.359375 53.898438 100.445312 53.960938 C 101.261719 54.433594 101.777344 55.3125 101.90625 56.234375 C 102.011719 57.09375 101.777344 57.949219 101.21875 58.613281 C 100.636719 59.300781 99.800781 59.75 98.917969 59.878906 C 97.050781 60.160156 95.3125 58.914062 94.601562 57.242188 C 94.558594 57.136719 94.730469 57.09375 94.773438 57.199219 Z M 98.167969 78.148438 C 98.082031 78.234375 97.953125 78.105469 98.039062 78.019531 C 98.640625 77.484375 99.199219 76.90625 99.691406 76.28125 C 99.777344 76.175781 99.886719 76.046875 99.972656 75.917969 C 100.378906 75.382812 100.746094 74.804688 101.066406 74.222656 C 101.753906 72.960938 102.226562 71.585938 102.484375 70.148438 C 102.742188 68.734375 102.828125 67.210938 102.378906 65.820312 C 102.183594 65.175781 101.839844 64.574219 101.367188 64.082031 C 101.347656 64.0625 101.324219 64.019531 101.28125 63.996094 C 101.21875 63.933594 101.152344 63.867188 101.066406 63.824219 C 100.636719 63.460938 100.144531 63.160156 99.605469 62.96875 C 98.339844 62.472656 96.945312 62.386719 95.613281 62.324219 C 95.484375 62.324219 95.484375 62.132812 95.613281 62.132812 C 97.160156 62.214844 98.769531 62.324219 100.164062 63.011719 C 100.507812 63.179688 100.851562 63.394531 101.152344 63.652344 C 101.261719 63.738281 101.367188 63.824219 101.453125 63.933594 C 101.5625 64.039062 101.648438 64.148438 101.734375 64.253906 C 102.183594 64.8125 102.464844 65.476562 102.636719 66.160156 C 102.980469 67.597656 102.851562 69.140625 102.550781 70.601562 C 102.140625 72.574219 101.28125 74.460938 100.058594 76.089844 C 99.949219 76.238281 99.820312 76.390625 99.714844 76.539062 C 99.242188 77.097656 98.726562 77.65625 98.167969 78.148438 Z M 98.167969 78.148438 " fill-opacity="1" fill-rule="nonzero"/><path fill="#574187" d="M 85.023438 48.042969 C 84.851562 46.394531 85.515625 44.742188 86.914062 43.820312 C 88.246094 42.917969 90.007812 42.726562 91.464844 43.414062 C 91.574219 43.457031 91.488281 43.625 91.378906 43.5625 C 90.605469 43.199219 89.707031 43.113281 88.867188 43.242188 C 87.320312 43.496094 85.96875 44.503906 85.453125 45.984375 C 84.9375 47.464844 85.195312 49.203125 86.226562 50.402344 C 86.3125 50.488281 86.183594 50.617188 86.097656 50.53125 C 85.472656 49.84375 85.128906 48.964844 85.023438 48.042969 Z M 94.558594 46.371094 C 94.238281 45.75 93.808594 45.171875 93.269531 44.699219 C 93.183594 44.613281 93.054688 44.742188 93.140625 44.828125 C 94 45.621094 94.644531 46.671875 94.839844 47.828125 C 95.011719 48.921875 94.753906 50.058594 94.042969 50.9375 C 93.679688 51.410156 93.183594 51.796875 92.605469 52.011719 C 92.496094 52.054688 92.539062 52.226562 92.648438 52.183594 C 93.699219 51.773438 94.472656 50.875 94.839844 49.800781 C 95.269531 48.664062 95.097656 47.421875 94.558594 46.371094 Z M 85.214844 65.992188 C 84.828125 66.71875 84.550781 67.492188 84.398438 68.285156 C 84.378906 68.390625 84.550781 68.457031 84.570312 68.328125 C 84.851562 66.933594 85.472656 65.648438 86.417969 64.574219 C 87.386719 63.480469 88.675781 62.667969 90.070312 62.238281 C 90.886719 62.003906 91.722656 61.875 92.582031 61.917969 C 92.710938 61.917969 92.710938 61.746094 92.582031 61.722656 C 91.035156 61.679688 89.511719 62.089844 88.179688 62.859375 C 86.933594 63.632812 85.902344 64.703125 85.214844 65.992188 Z M 93.292969 79.757812 C 93.398438 79.734375 93.355469 79.542969 93.25 79.585938 C 91.488281 79.992188 89.621094 79.5625 88.09375 78.621094 C 86.527344 77.632812 85.410156 76.089844 84.808594 74.375 C 84.464844 73.386719 84.269531 72.359375 84.226562 71.308594 C 84.226562 71.179688 84.035156 71.179688 84.035156 71.308594 C 84.097656 73.195312 84.679688 75.101562 85.773438 76.648438 C 86.847656 78.148438 88.4375 79.285156 90.242188 79.714844 C 91.230469 79.949219 92.28125 79.96875 93.292969 79.757812 Z M 102.636719 66.160156 C 102.464844 65.476562 102.183594 64.8125 101.734375 64.253906 C 101.648438 64.148438 101.539062 64.039062 101.453125 63.933594 C 101.347656 63.824219 101.261719 63.738281 101.152344 63.652344 C 100.851562 63.394531 100.53125 63.179688 100.164062 63.011719 C 98.769531 62.324219 97.136719 62.214844 95.613281 62.132812 C 95.484375 62.132812 95.484375 62.300781 95.613281 62.324219 C 96.964844 62.386719 98.339844 62.496094 99.605469 62.96875 C 100.144531 63.160156 100.636719 63.460938 101.066406 63.824219 C 101.132812 63.890625 101.21875 63.933594 101.28125 63.996094 C 101.304688 64.019531 101.324219 64.0625 101.367188 64.082031 C 101.839844 64.574219 102.164062 65.175781 102.378906 65.820312 C 102.808594 67.210938 102.722656 68.734375 102.484375 70.148438 C 102.226562 71.566406 101.753906 72.9375 101.066406 74.222656 C 100.746094 74.824219 100.378906 75.382812 99.972656 75.917969 C 99.886719 76.046875 99.800781 76.152344 99.691406 76.28125 C 99.199219 76.90625 98.640625 77.484375 98.039062 78.019531 C 97.953125 78.105469 98.082031 78.234375 98.167969 78.148438 C 98.726562 77.65625 99.261719 77.097656 99.734375 76.519531 C 99.863281 76.367188 99.972656 76.21875 100.078125 76.066406 C 101.304688 74.4375 102.164062 72.574219 102.570312 70.578125 C 102.871094 69.164062 102.980469 67.597656 102.636719 66.160156 Z M 75.445312 58.742188 C 75.703125 57.648438 76.046875 56.535156 76.730469 55.613281 C 77.332031 54.796875 78.257812 54.175781 79.289062 54.089844 C 79.394531 54.089844 79.417969 53.898438 79.289062 53.898438 C 78.472656 53.960938 77.71875 54.347656 77.140625 54.882812 C 76.476562 55.484375 76.046875 56.296875 75.746094 57.113281 C 75.550781 57.628906 75.421875 58.144531 75.292969 58.679688 C 75.230469 58.808594 75.402344 58.851562 75.445312 58.742188 Z M 76.367188 60.84375 C 76.324219 60.738281 76.152344 60.824219 76.21875 60.929688 C 76.925781 62.472656 78.515625 63.546875 80.210938 63.652344 C 80.339844 63.652344 80.320312 63.480469 80.210938 63.460938 C 78.578125 63.375 77.054688 62.324219 76.367188 60.84375 Z M 81.308594 54.175781 C 82.683594 54.242188 83.691406 55.417969 84.25 56.578125 C 84.894531 57.929688 85.128906 59.601562 84.269531 60.886719 C 83.863281 61.507812 83.242188 61.980469 82.511719 62.109375 C 82.402344 62.132812 82.445312 62.300781 82.554688 62.28125 C 83.96875 62.003906 84.894531 60.628906 85 59.234375 C 85.066406 58.398438 84.871094 57.542969 84.550781 56.769531 C 84.269531 56.085938 83.863281 55.441406 83.347656 54.925781 C 82.789062 54.390625 82.101562 54.003906 81.328125 53.984375 C 81.199219 54.003906 81.199219 54.175781 81.308594 54.175781 Z M 58.691406 47.613281 C 58.734375 46.605469 59.035156 45.621094 59.550781 44.742188 C 59.785156 44.335938 60.042969 43.96875 60.34375 43.625 C 60.882812 43.003906 61.527344 42.488281 62.257812 42.105469 C 62.835938 41.804688 63.4375 41.589844 64.082031 41.460938 C 64.1875 41.441406 64.144531 41.269531 64.039062 41.289062 C 62.601562 41.546875 61.289062 42.339844 60.324219 43.414062 C 59.9375 43.839844 59.59375 44.335938 59.3125 44.847656 C 59.164062 45.128906 59.035156 45.40625 58.925781 45.707031 C 58.691406 46.328125 58.5625 46.972656 58.539062 47.636719 C 58.496094 47.742188 58.691406 47.742188 58.691406 47.613281 Z M 60.6875 52.933594 C 59.9375 52.074219 59.226562 51.109375 59.121094 49.953125 C 59.097656 49.84375 58.925781 49.84375 58.925781 49.953125 C 59.035156 50.980469 59.59375 51.882812 60.238281 52.675781 C 60.902344 53.488281 61.613281 54.261719 62.40625 54.949219 C 63.199219 55.632812 64.101562 56.171875 65.132812 56.363281 C 66.144531 56.554688 67.195312 56.425781 68.164062 56.128906 C 69.324219 55.761719 70.394531 55.164062 71.363281 54.453125 C 71.449219 54.390625 71.363281 54.21875 71.277344 54.304688 C 69.664062 55.484375 67.648438 56.46875 65.585938 56.257812 C 63.5 56.042969 62 54.410156 60.6875 52.933594 Z M 66.121094 40.859375 C 66.421875 40.796875 66.746094 40.730469 67.066406 40.6875 C 68.140625 40.515625 69.238281 40.433594 70.289062 40.796875 C 71.382812 41.183594 72.328125 41.933594 73.039062 42.855469 C 73.554688 43.519531 73.941406 44.25 74.199219 45.019531 C 74.199219 45.042969 74.21875 45.085938 74.21875 45.105469 C 74.648438 46.433594 74.757812 47.871094 74.5 49.246094 C 74.285156 50.488281 73.769531 51.667969 72.996094 52.675781 C 72.929688 52.761719 73.082031 52.867188 73.144531 52.761719 C 74.542969 50.917969 75.058594 48.492188 74.671875 46.242188 C 74.605469 45.898438 74.519531 45.554688 74.414062 45.214844 C 74.414062 45.191406 74.390625 45.171875 74.390625 45.148438 C 73.789062 43.285156 72.5 41.589844 70.675781 40.796875 C 69.988281 40.496094 69.28125 40.367188 68.527344 40.390625 C 67.96875 40.390625 67.390625 40.476562 66.832031 40.558594 C 66.550781 40.601562 66.292969 40.667969 66.015625 40.710938 C 65.972656 40.710938 66.015625 40.882812 66.121094 40.859375 Z M 94.988281 55.761719 C 95.613281 54.519531 96.945312 53.703125 98.316406 53.703125 C 98.445312 53.703125 98.445312 53.511719 98.316406 53.511719 C 96.859375 53.488281 95.460938 54.347656 94.816406 55.65625 C 94.773438 55.761719 94.945312 55.871094 94.988281 55.761719 Z M 98.898438 59.902344 C 99.777344 59.773438 100.636719 59.320312 101.195312 58.636719 C 101.753906 57.972656 101.992188 57.113281 101.882812 56.257812 C 101.753906 55.332031 101.261719 54.453125 100.421875 53.984375 C 100.316406 53.917969 100.230469 54.089844 100.335938 54.132812 C 101.753906 54.949219 102.140625 56.964844 101.21875 58.292969 C 100.746094 58.980469 99.992188 59.449219 99.175781 59.664062 C 98.339844 59.878906 97.457031 59.75 96.6875 59.34375 C 95.828125 58.894531 95.117188 58.121094 94.753906 57.222656 C 94.710938 57.113281 94.539062 57.15625 94.582031 57.261719 C 95.289062 58.914062 97.050781 60.160156 98.898438 59.902344 Z M 77.441406 41.355469 C 77.699219 39.894531 79.03125 38.714844 80.511719 38.652344 C 80.640625 38.652344 80.640625 38.460938 80.511719 38.460938 C 78.945312 38.523438 77.546875 39.746094 77.269531 41.289062 C 77.226562 41.417969 77.417969 41.460938 77.441406 41.355469 Z M 79.179688 44.011719 C 78.558594 43.863281 77.890625 43.390625 77.804688 42.703125 C 77.785156 42.597656 77.613281 42.597656 77.613281 42.703125 C 77.761719 44.035156 79.394531 44.460938 80.511719 44.183594 C 81.09375 44.035156 81.628906 43.710938 82.015625 43.261719 C 82.445312 42.769531 82.683594 42.148438 82.726562 41.523438 C 82.746094 41.226562 82.746094 40.902344 82.683594 40.601562 C 82.617188 40.175781 82.445312 39.746094 82.230469 39.359375 C 82.167969 39.253906 82.015625 39.359375 82.082031 39.445312 C 82.339844 39.875 82.511719 40.390625 82.554688 40.882812 C 82.617188 41.589844 82.46875 42.296875 82.058594 42.898438 C 81.457031 43.796875 80.234375 44.292969 79.179688 44.011719 Z M 63.84375 61.082031 C 64.574219 60.695312 65.390625 60.4375 66.230469 60.351562 C 66.335938 60.328125 66.335938 60.160156 66.230469 60.160156 C 64.726562 60.308594 63.285156 60.996094 62.191406 62.066406 C 61.054688 63.179688 60.367188 64.703125 60.257812 66.3125 C 60.195312 67.234375 60.324219 68.175781 60.625 69.035156 C 60.667969 69.140625 60.839844 69.097656 60.796875 68.992188 C 60.257812 67.492188 60.300781 65.820312 60.882812 64.339844 C 61.441406 62.925781 62.515625 61.789062 63.84375 61.082031 Z M 68.421875 73.859375 C 69.792969 73.582031 71.105469 72.9375 72.199219 72.078125 C 73.273438 71.242188 74.175781 70.171875 74.714844 68.929688 C 75.335938 67.46875 75.421875 65.777344 74.757812 64.339844 C 74.714844 64.230469 74.542969 64.316406 74.605469 64.425781 C 75.207031 65.691406 75.1875 67.191406 74.714844 68.476562 C 74.261719 69.722656 73.425781 70.792969 72.4375 71.652344 C 70.460938 73.367188 67.667969 74.332031 65.089844 73.515625 C 63.78125 73.109375 62.601562 72.273438 61.890625 71.09375 C 61.828125 70.988281 61.675781 71.09375 61.742188 71.179688 C 62.40625 72.25 63.414062 73.066406 64.597656 73.539062 C 65.777344 74.011719 67.132812 74.117188 68.421875 73.859375 Z M 69 60.523438 C 68.894531 60.5 68.828125 60.671875 68.957031 60.695312 C 70.289062 60.929688 71.492188 61.660156 72.308594 62.730469 C 72.371094 62.816406 72.542969 62.730469 72.457031 62.644531 C 71.621094 61.550781 70.375 60.78125 69 60.523438 Z M 49.324219 58.765625 C 49.734375 57.242188 50.828125 55.976562 52.203125 55.25 C 52.269531 55.226562 52.332031 55.183594 52.398438 55.164062 C 52.699219 55.011719 53.019531 54.90625 53.34375 54.796875 C 53.878906 54.648438 54.4375 54.582031 54.996094 54.605469 C 55.125 54.605469 55.125 54.433594 54.996094 54.410156 C 54.09375 54.367188 53.214844 54.582031 52.398438 54.949219 C 52.3125 54.992188 52.203125 55.035156 52.117188 55.078125 C 51.214844 55.546875 50.421875 56.257812 49.863281 57.113281 C 49.539062 57.605469 49.304688 58.121094 49.152344 58.679688 C 49.132812 58.828125 49.304688 58.871094 49.324219 58.765625 Z M 53.535156 65.496094 C 54.136719 65.5625 54.71875 65.539062 55.296875 65.433594 C 56.820312 65.152344 58.238281 64.339844 59.207031 63.140625 C 60.109375 62.023438 60.582031 60.585938 60.367188 59.152344 C 60.171875 57.800781 59.398438 56.492188 58.21875 55.785156 C 58.066406 55.699219 57.917969 55.613281 57.746094 55.546875 C 57.636719 55.503906 57.550781 55.65625 57.660156 55.699219 C 58.90625 56.234375 59.765625 57.390625 60.085938 58.679688 C 60.429688 60.03125 60.152344 61.445312 59.378906 62.601562 C 58.132812 64.46875 55.792969 65.539062 53.601562 65.304688 C 52.804688 65.21875 52.054688 64.960938 51.367188 64.511719 C 50.226562 63.761719 49.367188 62.558594 49.066406 61.207031 C 49.023438 61.015625 49.003906 60.84375 48.980469 60.652344 C 48.960938 60.542969 48.789062 60.523438 48.789062 60.652344 C 48.8125 60.800781 48.832031 60.953125 48.855469 61.101562 C 49.089844 62.367188 49.796875 63.523438 50.808594 64.339844 C 51.367188 64.789062 52.011719 65.132812 52.675781 65.347656 C 52.957031 65.410156 53.234375 65.453125 53.535156 65.496094 Z M 75.660156 74.695312 C 72.695312 75.230469 69.664062 76.21875 67.496094 78.425781 C 66.9375 78.984375 66.464844 79.628906 66.078125 80.3125 C 66.015625 80.421875 66.1875 80.507812 66.230469 80.398438 C 67.667969 77.804688 70.375 76.28125 73.125 75.46875 C 73.960938 75.210938 74.820312 75.039062 75.679688 74.867188 C 75.832031 74.847656 75.789062 74.675781 75.660156 74.695312 Z M 69.988281 91.761719 C 68.164062 90.820312 66.765625 89.167969 66.035156 87.261719 C 66.035156 87.238281 66.015625 87.21875 66.015625 87.195312 C 65.734375 86.488281 65.5625 85.738281 65.476562 84.964844 C 65.390625 84.171875 65.433594 83.378906 65.585938 82.609375 C 65.605469 82.5 65.433594 82.4375 65.414062 82.566406 C 65.132812 83.980469 65.242188 85.460938 65.671875 86.832031 C 65.714844 86.960938 65.757812 87.089844 65.820312 87.21875 C 65.84375 87.28125 65.863281 87.324219 65.886719 87.390625 C 66.335938 88.546875 67.046875 89.621094 67.925781 90.5 C 68.507812 91.078125 69.171875 91.550781 69.902344 91.933594 C 70.007812 91.976562 70.09375 91.804688 69.988281 91.761719 Z M 79.179688 75.382812 C 78.988281 75.359375 78.773438 75.339844 78.558594 75.316406 C 78.429688 75.316406 78.429688 75.488281 78.558594 75.511719 C 80.210938 75.597656 81.78125 76.390625 82.960938 77.546875 C 84.226562 78.8125 84.957031 80.527344 85.085938 82.328125 C 85.214844 84.171875 84.765625 86.015625 83.820312 87.605469 C 83.605469 87.945312 83.390625 88.289062 83.132812 88.613281 C 82.984375 88.804688 82.855469 88.976562 82.683594 89.148438 C 81.953125 89.984375 81.09375 90.714844 80.148438 91.3125 C 79.910156 91.464844 79.675781 91.613281 79.417969 91.742188 C 78.878906 92.042969 78.320312 92.277344 77.742188 92.492188 C 76.753906 92.855469 75.703125 93.070312 74.648438 93.15625 C 74.414062 93.179688 74.15625 93.179688 73.917969 93.179688 C 73.789062 93.179688 73.789062 93.371094 73.917969 93.371094 C 75.25 93.371094 76.582031 93.136719 77.828125 92.664062 C 78.40625 92.449219 78.964844 92.191406 79.503906 91.914062 C 79.566406 91.871094 79.632812 91.847656 79.695312 91.804688 C 80.878906 91.140625 81.953125 90.285156 82.855469 89.253906 C 83.003906 89.0625 83.175781 88.867188 83.304688 88.675781 C 83.433594 88.527344 83.539062 88.355469 83.648438 88.203125 C 84.699219 86.660156 85.28125 84.816406 85.28125 82.929688 C 85.28125 81.085938 84.679688 79.261719 83.476562 77.847656 C 82.382812 76.5625 80.855469 75.640625 79.179688 75.382812 Z M 87.34375 85.609375 C 87.277344 85.695312 87.429688 85.804688 87.492188 85.695312 C 88.417969 84.410156 90.027344 83.722656 91.59375 83.894531 C 91.703125 83.914062 91.703125 83.722656 91.59375 83.703125 C 89.964844 83.53125 88.289062 84.28125 87.34375 85.609375 Z M 93.140625 84.429688 C 93.035156 84.410156 92.96875 84.582031 93.097656 84.601562 C 93.785156 84.730469 93.9375 85.546875 93.765625 86.125 C 93.742188 86.210938 93.699219 86.296875 93.65625 86.382812 C 93.527344 86.640625 93.378906 86.894531 93.207031 87.132812 C 93.011719 87.433594 92.820312 87.710938 92.605469 87.988281 C 92.5625 88.03125 92.519531 88.097656 92.476562 88.140625 C 92.066406 88.613281 91.550781 88.976562 90.929688 89.148438 C 90.5625 89.253906 90.15625 89.277344 89.769531 89.296875 C 89.382812 89.320312 88.996094 89.339844 88.609375 89.320312 C 88.203125 89.277344 87.792969 89.167969 87.472656 88.890625 C 87.191406 88.632812 87 88.289062 87.042969 87.902344 C 87.0625 87.796875 86.871094 87.796875 86.847656 87.902344 C 86.761719 88.65625 87.429688 89.253906 88.09375 89.425781 C 88.503906 89.535156 88.953125 89.535156 89.382812 89.511719 C 89.8125 89.492188 90.242188 89.46875 90.648438 89.40625 C 91.058594 89.339844 91.445312 89.210938 91.789062 88.996094 C 92.066406 88.824219 92.304688 88.613281 92.519531 88.375 C 92.5625 88.332031 92.582031 88.289062 92.625 88.246094 C 92.882812 87.945312 93.097656 87.648438 93.3125 87.324219 C 93.441406 87.132812 93.570312 86.9375 93.679688 86.726562 C 93.765625 86.574219 93.851562 86.402344 93.914062 86.230469 C 94.042969 85.867188 94.066406 85.460938 93.914062 85.09375 C 93.765625 84.773438 93.507812 84.496094 93.140625 84.429688 Z M 53.945312 70.449219 C 54.480469 70.214844 55.082031 70.085938 55.683594 70.105469 C 55.8125 70.105469 55.8125 69.9375 55.683594 69.914062 C 54.589844 69.871094 53.515625 70.300781 52.699219 71.007812 C 52.417969 71.242188 52.183594 71.523438 51.96875 71.800781 C 51.496094 72.445312 51.171875 73.171875 51.023438 73.945312 C 50.914062 74.417969 50.871094 74.910156 50.894531 75.382812 C 50.894531 75.574219 50.914062 75.769531 50.914062 75.960938 C 50.9375 76.066406 51.109375 76.089844 51.109375 75.960938 C 51.085938 75.703125 51.066406 75.425781 51.085938 75.167969 C 51.109375 74.289062 51.28125 73.410156 51.6875 72.636719 C 51.730469 72.53125 51.796875 72.421875 51.859375 72.335938 C 52.3125 71.523438 53.042969 70.859375 53.945312 70.449219 Z M 59.699219 72.789062 C 59.398438 71.972656 58.710938 71.285156 57.851562 71.070312 C 57.746094 71.050781 57.679688 71.222656 57.808594 71.242188 C 58.539062 71.4375 59.164062 71.972656 59.464844 72.660156 C 59.785156 73.386719 59.679688 74.203125 59.3125 74.890625 C 58.925781 75.597656 58.324219 76.152344 57.660156 76.605469 C 56.949219 77.074219 56.15625 77.460938 55.339844 77.675781 C 54.417969 77.914062 53.429688 77.933594 52.527344 77.546875 C 52.417969 77.503906 52.375 77.675781 52.484375 77.71875 C 54.203125 78.425781 56.175781 77.804688 57.660156 76.839844 C 58.949219 76.003906 60.28125 74.480469 59.699219 72.789062 Z M 60.042969 80.140625 C 60.152344 80.164062 60.214844 79.992188 60.085938 79.96875 C 58.496094 79.585938 56.734375 80.484375 56.113281 81.984375 C 56.070312 82.09375 56.242188 82.136719 56.285156 82.027344 C 56.886719 80.613281 58.5625 79.777344 60.042969 80.140625 Z M 61.699219 80.914062 C 62.664062 81.921875 62.8125 83.59375 61.957031 84.710938 C 61.097656 85.824219 59.527344 86.230469 58.28125 85.566406 C 57.59375 85.203125 57.035156 84.601562 56.800781 83.851562 C 56.757812 83.746094 56.585938 83.789062 56.628906 83.894531 C 57.078125 85.289062 58.539062 86.253906 60.023438 86.039062 C 61.527344 85.824219 62.707031 84.539062 62.730469 83.035156 C 62.75 82.199219 62.429688 81.363281 61.847656 80.765625 C 61.742188 80.699219 61.613281 80.828125 61.699219 80.914062 Z M 61.699219 80.914062 " fill-opacity="1" fill-rule="nonzero"/><g fill="#2a537d" fill-opacity="1"><g transform="translate(23.688668, 140.859717)"><g><path d="M 1.617188 0 L 6.136719 0 C 10.125 0 12.09375 -2.507812 12.09375 -6.25 C 12.09375 -9.984375 10.125 -12.492188 6.136719 -12.492188 L 1.617188 -12.492188 Z M 4.210938 -2.289062 L 4.210938 -10.210938 L 6.007812 -10.210938 C 8.308594 -10.210938 9.363281 -8.773438 9.363281 -6.25 C 9.363281 -3.726562 8.308594 -2.289062 6.007812 -2.289062 Z M 4.210938 -2.289062 "/></g></g></g><g fill="#2a537d" fill-opacity="1"><g transform="translate(36.586104, 140.859717)"><g><path d="M 1.617188 0 L 4.210938 0 L 4.210938 -12.492188 L 1.617188 -12.492188 Z M 1.617188 0 "/></g></g></g><g fill="#2a537d" fill-opacity="1"><g transform="translate(42.399885, 140.859717)"><g><path d="M 9.976562 0 L 12.628906 0 L 8.03125 -12.492188 L 4.859375 -12.492188 L 0.257812 0 L 2.914062 0 L 3.820312 -2.578125 L 9.070312 -2.578125 Z M 4.582031 -4.746094 L 6.449219 -10.046875 L 8.308594 -4.746094 Z M 4.582031 -4.746094 "/></g></g></g><g fill="#2a537d" fill-opacity="1"><g transform="translate(55.280044, 140.859717)"><g><path d="M 7.019531 0.171875 C 8.929688 0.171875 10.277344 -0.542969 11.082031 -1.730469 L 11.082031 0 L 13.125 0 L 13.125 -6.785156 L 7.253906 -6.785156 L 7.253906 -4.703125 L 10.667969 -4.703125 C 10.3125 -2.878906 8.84375 -2.082031 7.246094 -2.082031 C 4.882812 -2.082031 3.363281 -3.726562 3.363281 -6.277344 C 3.363281 -8.921875 4.988281 -10.410156 7.148438 -10.410156 C 8.542969 -10.410156 9.71875 -9.796875 10.425781 -8.53125 L 12.648438 -9.726562 C 11.558594 -11.601562 9.5625 -12.664062 7.148438 -12.664062 C 3.476562 -12.664062 0.761719 -10.167969 0.761719 -6.214844 C 0.761719 -2.316406 3.414062 0.171875 7.019531 0.171875 Z M 7.019531 0.171875 "/></g></g></g><g fill="#2a537d" fill-opacity="1"><g transform="translate(69.464633, 140.859717)"><g><path d="M 10.148438 -12.492188 L 10.148438 -3.613281 L 4.582031 -12.492188 L 1.617188 -12.492188 L 1.617188 0 L 4.203125 0 L 4.203125 -8.929688 L 9.734375 0 L 12.734375 0 L 12.734375 -12.492188 Z M 10.148438 -12.492188 "/></g></g></g><g fill="#2a537d" fill-opacity="1"><g transform="translate(83.804717, 140.859717)"><g><path d="M 7.148438 0.171875 C 10.816406 0.171875 13.53125 -2.335938 13.53125 -6.25 C 13.53125 -10.175781 10.816406 -12.664062 7.148438 -12.664062 C 3.476562 -12.664062 0.761719 -10.175781 0.761719 -6.25 C 0.761719 -2.335938 3.476562 0.171875 7.148438 0.171875 Z M 7.148438 -2.203125 C 4.996094 -2.203125 3.34375 -3.71875 3.34375 -6.25 C 3.34375 -8.773438 4.996094 -10.277344 7.148438 -10.277344 C 9.300781 -10.277344 10.953125 -8.773438 10.953125 -6.25 C 10.953125 -3.71875 9.300781 -2.203125 7.148438 -2.203125 Z M 7.148438 -2.203125 "/></g></g></g><g fill="#2a537d" fill-opacity="1"><g transform="translate(98.092968, 140.859717)"><g><path d="M 5.773438 0.171875 C 8.5 0.171875 10.433594 -1.183594 10.433594 -3.5625 C 10.433594 -6.09375 8.214844 -6.8125 6.320312 -7.382812 C 4.902344 -7.804688 3.675781 -8.101562 3.675781 -9.148438 C 3.675781 -10.105469 4.566406 -10.546875 5.609375 -10.546875 C 6.785156 -10.546875 7.625 -10.003906 8.015625 -8.800781 L 10.367188 -9.378906 C 9.863281 -11.773438 7.652344 -12.664062 5.457031 -12.664062 C 2.949219 -12.664062 1.046875 -11.351562 1.046875 -9.050781 C 1.046875 -6.71875 3.007812 -6.050781 4.839844 -5.480469 C 6.363281 -5.015625 7.746094 -4.652344 7.753906 -3.421875 C 7.761719 -2.410156 6.925781 -1.945312 5.816406 -1.945312 C 4.511719 -1.945312 3.542969 -2.609375 3.179688 -4.046875 L 0.613281 -3.457031 C 0.996094 -1.113281 3.085938 0.171875 5.773438 0.171875 Z M 5.773438 0.171875 "/></g></g></g><g fill="#2a537d" fill-opacity="1"><g transform="translate(109.297238, 140.859717)"><g><path d="M 1.617188 0 L 4.210938 0 L 4.210938 -12.492188 L 1.617188 -12.492188 Z M 1.617188 0 "/></g></g></g><g fill="#2a537d" fill-opacity="1"><g transform="translate(115.111019, 140.859717)"><g><path d="M 5.773438 0.171875 C 8.5 0.171875 10.433594 -1.183594 10.433594 -3.5625 C 10.433594 -6.09375 8.214844 -6.8125 6.320312 -7.382812 C 4.902344 -7.804688 3.675781 -8.101562 3.675781 -9.148438 C 3.675781 -10.105469 4.566406 -10.546875 5.609375 -10.546875 C 6.785156 -10.546875 7.625 -10.003906 8.015625 -8.800781 L 10.367188 -9.378906 C 9.863281 -11.773438 7.652344 -12.664062 5.457031 -12.664062 C 2.949219 -12.664062 1.046875 -11.351562 1.046875 -9.050781 C 1.046875 -6.71875 3.007812 -6.050781 4.839844 -5.480469 C 6.363281 -5.015625 7.746094 -4.652344 7.753906 -3.421875 C 7.761719 -2.410156 6.925781 -1.945312 5.816406 -1.945312 C 4.511719 -1.945312 3.542969 -2.609375 3.179688 -4.046875 L 0.613281 -3.457031 C 0.996094 -1.113281 3.085938 0.171875 5.773438 0.171875 Z M 5.773438 0.171875 "/></g></g></g></svg>