<svg xmlns="http://www.w3.org/2000/svg" xmlns:xlink="http://www.w3.org/1999/xlink" width="60" zoomAndPan="magnify" viewBox="0 0 45 44.999999" height="60" preserveAspectRatio="xMidYMid meet" version="1.0"><defs><clipPath id="463b40df2b"><path d="M 1.785156 1.785156 L 43.035156 1.785156 L 43.035156 43.035156 L 1.785156 43.035156 Z M 1.785156 1.785156 " clip-rule="nonzero"/></clipPath></defs><g clip-path="url(#463b40df2b)"><path fill="#332920" d="M 43.042969 22.417969 C 43.042969 33.808594 33.808594 43.042969 22.417969 43.042969 C 11.023438 43.042969 1.789062 33.808594 1.789062 22.417969 C 1.789062 11.023438 11.023438 1.789062 22.417969 1.789062 C 33.808594 1.789062 43.042969 11.023438 43.042969 22.417969 " fill-opacity="1" fill-rule="nonzero"/></g><path stroke-linecap="round" transform="matrix(0.0160944, 0, 0, -0.0160944, -11.800004, 56.633473)" fill="none" stroke-linejoin="round" d="M 2235.538113 2129.806647 L 2285.536029 2249.947271 L 2335.533945 2370.330603 L 2385.531861 2249.947271 L 2435.529777 2129.806647 " stroke="#ffffff" stroke-width="100" stroke-opacity="1" stroke-miterlimit="10"/><path stroke-linecap="round" transform="matrix(0.0160944, 0, 0, -0.0160944, -11.800004, 56.633473)" fill="none" stroke-linejoin="round" d="M 2435.529777 2129.806647 L 2485.527693 2009.423316 L 2535.2829 1889.282692 L 2585.280816 2009.423316 L 2635.278732 2129.806647 " stroke="#ffffff" stroke-width="100" stroke-opacity="1" stroke-miterlimit="10"/><path stroke-linecap="round" transform="matrix(0.0160944, 0, 0, -0.0160944, -11.800004, 56.633473)" fill="none" stroke-linejoin="round" d="M 2635.278732 2129.806647 L 2685.276648 2249.947271 L 2735.274564 2370.330603 L 2785.27248 2249.947271 L 2835.270396 2129.806647 " stroke="#ffffff" stroke-width="100" stroke-opacity="1" stroke-miterlimit="10"/><path stroke-linecap="round" transform="matrix(0.0160944, 0, 0, -0.0160944, -11.800004, 56.633473)" fill="none" stroke-linejoin="round" d="M 2835.270396 2129.806647 L 2935.266229 1889.282692 L 3035.019352 2129.806647 " stroke="#ffffff" stroke-width="100" stroke-opacity="1" stroke-miterlimit="10"/><path stroke-linecap="round" transform="matrix(0.0160944, 0, 0, -0.0160944, -11.800004, 56.633473)" fill="none" stroke-linejoin="round" d="M 3035.019352 2129.806647 L 3144.723517 2129.806647 " stroke="#ffffff" stroke-width="100" stroke-opacity="1" stroke-miterlimit="10"/><path stroke-linecap="round" transform="matrix(0.0160944, 0, 0, -0.0160944, -11.800004, 56.633473)" fill="none" stroke-linejoin="round" d="M 2126.076656 2129.806647 L 2235.538113 2129.806647 " stroke="#ffffff" stroke-width="100" stroke-opacity="1" stroke-miterlimit="10"/><path stroke-linecap="round" transform="matrix(0.0160944, 0, 0, -0.0160944, -11.800004, 56.633473)" fill="none" stroke-linejoin="round" d="M 2951.527687 2456.977476 C 2946.430812 2699.443098 2745.953731 2891.668096 2503.488109 2886.813929 C 2314.175612 2882.687888 2155.444364 2759.392056 2097.437073 2590.22435 C 2079.476656 2642.649349 2051.32249 2692.404557 2012.974574 2736.577473 C 1853.515201 2919.094137 1576.09958 2938.025387 1393.582915 2778.566014 C 1210.823543 2619.106641 1192.135001 2341.69102 1351.594374 2159.174355 L 2097.437073 1304.841033 L 2429.947485 1687.106653 " stroke="#ffffff" stroke-width="100" stroke-opacity="1" stroke-miterlimit="10"/></svg>