<svg xmlns="http://www.w3.org/2000/svg" xmlns:xlink="http://www.w3.org/1999/xlink" width="220" zoomAndPan="magnify" viewBox="0 0 165 44.999999" height="60" preserveAspectRatio="xMidYMid meet" version="1.0"><defs><g/><clipPath id="04d0414d1f"><path d="M 4.5 2.757812 L 44.25 2.757812 L 44.25 42.507812 L 4.5 42.507812 Z M 4.5 2.757812 " clip-rule="nonzero"/></clipPath></defs><g clip-path="url(#04d0414d1f)"><path fill="#5d9ad8" d="M 44.261719 22.640625 C 44.261719 33.617188 35.359375 42.515625 24.382812 42.515625 C 13.40625 42.515625 4.503906 33.617188 4.503906 22.640625 C 4.503906 11.660156 13.40625 2.761719 24.382812 2.761719 C 35.359375 2.761719 44.261719 11.660156 44.261719 22.640625 " fill-opacity="1" fill-rule="nonzero"/></g><path stroke-linecap="round" transform="matrix(0.0155092, 0, 0, -0.0155092, -8.589736, 55.611179)" fill="none" stroke-linejoin="round" d="M 2235.565896 2129.653075 L 2285.687459 2250.045573 L 2335.557155 2370.186205 L 2385.426851 2250.045573 L 2435.548415 2129.653075 " stroke="#ffffff" stroke-width="100" stroke-opacity="1" stroke-miterlimit="10"/><path stroke-linecap="round" transform="matrix(0.0155092, 0, 0, -0.0155092, -8.589736, 55.611179)" fill="none" stroke-linejoin="round" d="M 2435.548415 2129.653075 L 2485.418111 2009.512444 L 2535.287807 1889.119945 L 2585.40937 2009.512444 L 2635.279066 2129.653075 " stroke="#ffffff" stroke-width="100" stroke-opacity="1" stroke-miterlimit="10"/><path stroke-linecap="round" transform="matrix(0.0155092, 0, 0, -0.0155092, -8.589736, 55.611179)" fill="none" stroke-linejoin="round" d="M 2635.279066 2129.653075 L 2685.400629 2250.045573 L 2735.270325 2370.186205 L 2785.140021 2250.045573 L 2835.261584 2129.653075 " stroke="#ffffff" stroke-width="100" stroke-opacity="1" stroke-miterlimit="10"/><path stroke-linecap="round" transform="matrix(0.0155092, 0, 0, -0.0155092, -8.589736, 55.611179)" fill="none" stroke-linejoin="round" d="M 2835.261584 2129.653075 L 2935.252843 1889.119945 L 3034.992235 2129.653075 " stroke="#ffffff" stroke-width="100" stroke-opacity="1" stroke-miterlimit="10"/><path stroke-linecap="round" transform="matrix(0.0155092, 0, 0, -0.0155092, -8.589736, 55.611179)" fill="none" stroke-linejoin="round" d="M 3034.992235 2129.653075 L 3144.806313 2129.653075 " stroke="#ffffff" stroke-width="100" stroke-opacity="1" stroke-miterlimit="10"/><path stroke-linecap="round" transform="matrix(0.0155092, 0, 0, -0.0155092, -8.589736, 55.611179)" fill="none" stroke-linejoin="round" d="M 2126.003685 2129.653075 L 2235.565896 2129.653075 " stroke="#ffffff" stroke-width="100" stroke-opacity="1" stroke-miterlimit="10"/><path stroke-linecap="round" transform="matrix(0.0155092, 0, 0, -0.0155092, -8.589736, 55.611179)" fill="none" stroke-linejoin="round" d="M 2951.624208 2457.080372 C 2946.586865 2699.376572 2746.100612 2891.803076 2503.552545 2886.765733 C 2314.148447 2882.735858 2155.472142 2759.572821 2097.29083 2590.066228 C 2079.408262 2642.454596 2051.451008 2692.324292 2012.915334 2736.65291 C 1853.483427 2919.256595 1576.177693 2937.894764 1393.574008 2778.462857 C 1210.970324 2619.030951 1192.080287 2341.725217 1351.512194 2159.121532 L 2097.542697 1304.788154 L 2430.007337 1687.12249 " stroke="#ffffff" stroke-width="100" stroke-opacity="1" stroke-miterlimit="10"/><g fill="#5d9ad8" fill-opacity="1"><g transform="translate(47.579135, 27.571027)"><g><path d="M 6.550781 0.160156 C 9.90625 0.160156 12.394531 -2.136719 12.394531 -5.726562 C 12.394531 -9.320312 9.90625 -11.601562 6.550781 -11.601562 C 3.183594 -11.601562 0.695312 -9.320312 0.695312 -5.726562 C 0.695312 -2.136719 3.183594 0.160156 6.550781 0.160156 Z M 6.550781 -2.019531 C 4.578125 -2.019531 3.066406 -3.40625 3.066406 -5.726562 C 3.066406 -8.039062 4.578125 -9.417969 6.550781 -9.417969 C 8.523438 -9.417969 10.035156 -8.039062 10.035156 -5.726562 C 10.035156 -3.40625 8.523438 -2.019531 6.550781 -2.019531 Z M 6.550781 -2.019531 "/></g></g></g><g fill="#5d9ad8" fill-opacity="1"><g transform="translate(60.676041, 27.571027)"><g><path d="M 9.296875 -11.445312 L 9.296875 -3.3125 L 4.199219 -11.445312 L 1.480469 -11.445312 L 1.480469 0 L 3.847656 0 L 3.847656 -8.179688 L 8.917969 0 L 11.667969 0 L 11.667969 -11.445312 Z M 9.296875 -11.445312 "/></g></g></g><g fill="#5d9ad8" fill-opacity="1"><g transform="translate(73.820456, 27.571027)"><g><path d="M 6.550781 0.160156 C 9.101562 0.160156 11.144531 -1.15625 11.960938 -3.328125 L 9.742188 -4.132812 C 9.234375 -2.804688 8.023438 -2.027344 6.550781 -2.027344 C 4.578125 -2.027344 3.066406 -3.414062 3.066406 -5.726562 C 3.066406 -8.039062 4.578125 -9.417969 6.550781 -9.417969 C 8.023438 -9.417969 9.234375 -8.648438 9.742188 -7.316406 L 11.960938 -8.125 C 11.144531 -10.296875 9.101562 -11.601562 6.550781 -11.601562 C 3.183594 -11.601562 0.695312 -9.320312 0.695312 -5.726562 C 0.695312 -2.128906 3.183594 0.160156 6.550781 0.160156 Z M 6.550781 0.160156 "/></g></g></g><g fill="#5d9ad8" fill-opacity="1"><g transform="translate(86.244309, 27.571027)"><g><path d="M 6.550781 0.160156 C 9.90625 0.160156 12.394531 -2.136719 12.394531 -5.726562 C 12.394531 -9.320312 9.90625 -11.601562 6.550781 -11.601562 C 3.183594 -11.601562 0.695312 -9.320312 0.695312 -5.726562 C 0.695312 -2.136719 3.183594 0.160156 6.550781 0.160156 Z M 6.550781 -2.019531 C 4.578125 -2.019531 3.066406 -3.40625 3.066406 -5.726562 C 3.066406 -8.039062 4.578125 -9.417969 6.550781 -9.417969 C 8.523438 -9.417969 10.035156 -8.039062 10.035156 -5.726562 C 10.035156 -3.40625 8.523438 -2.019531 6.550781 -2.019531 Z M 6.550781 -2.019531 "/></g></g></g><g fill="#5d9ad8" fill-opacity="1"><g transform="translate(99.341214, 27.571027)"><g/></g></g><g fill="#5d9ad8" fill-opacity="1"><g transform="translate(103.553762, 27.571027)"><g><path d="M 7.628906 -6.042969 C 8.523438 -6.480469 8.957031 -7.300781 8.957031 -8.308594 C 8.957031 -10.257812 7.660156 -11.445312 5.1875 -11.445312 L 1.480469 -11.445312 L 1.480469 0 L 6.195312 0 C 8.609375 0 9.78125 -1.273438 9.78125 -3.207031 C 9.78125 -4.839844 8.917969 -5.6875 7.628906 -6.042969 Z M 5.210938 -9.472656 C 6.273438 -9.472656 6.773438 -8.917969 6.773438 -8.15625 C 6.773438 -7.382812 6.328125 -6.78125 5.3125 -6.78125 L 3.769531 -6.78125 L 3.769531 -9.472656 Z M 5.75 -2.035156 L 3.769531 -2.035156 L 3.769531 -4.949219 L 5.703125 -4.949219 C 7.042969 -4.949219 7.476562 -4.230469 7.476562 -3.46875 C 7.476562 -2.722656 7.03125 -2.035156 5.75 -2.035156 Z M 5.75 -2.035156 "/></g></g></g><g fill="#5d9ad8" fill-opacity="1"><g transform="translate(113.966361, 27.571027)"><g><path d="M 5.71875 0.160156 C 8.238281 0.160156 10.210938 -1.125 10.210938 -4.007812 L 10.210938 -11.445312 L 7.832031 -11.445312 L 7.832031 -4.332031 C 7.832031 -2.597656 6.898438 -1.941406 5.71875 -1.941406 C 4.546875 -1.941406 3.621094 -2.589844 3.621094 -4.332031 L 3.621094 -11.445312 L 1.242188 -11.445312 L 1.242188 -4.007812 C 1.242188 -1.125 3.207031 0.160156 5.71875 0.160156 Z M 5.71875 0.160156 "/></g></g></g><g fill="#5d9ad8" fill-opacity="1"><g transform="translate(125.416256, 27.571027)"><g><path d="M 1.480469 0 L 5.625 0 C 9.273438 0 11.082031 -2.296875 11.082031 -5.726562 C 11.082031 -9.148438 9.273438 -11.445312 5.625 -11.445312 L 1.480469 -11.445312 Z M 3.855469 -2.097656 L 3.855469 -9.355469 L 5.503906 -9.355469 C 7.609375 -9.355469 8.578125 -8.039062 8.578125 -5.726562 C 8.578125 -3.414062 7.609375 -2.097656 5.503906 -2.097656 Z M 3.855469 -2.097656 "/></g></g></g><g fill="#5d9ad8" fill-opacity="1"><g transform="translate(137.238317, 27.571027)"><g><path d="M 1.480469 0 L 5.625 0 C 9.273438 0 11.082031 -2.296875 11.082031 -5.726562 C 11.082031 -9.148438 9.273438 -11.445312 5.625 -11.445312 L 1.480469 -11.445312 Z M 3.855469 -2.097656 L 3.855469 -9.355469 L 5.503906 -9.355469 C 7.609375 -9.355469 8.578125 -8.039062 8.578125 -5.726562 C 8.578125 -3.414062 7.609375 -2.097656 5.503906 -2.097656 Z M 3.855469 -2.097656 "/></g></g></g><g fill="#5d9ad8" fill-opacity="1"><g transform="translate(149.060378, 27.571027)"><g><path d="M 3.921875 0 L 6.304688 0 L 6.304688 -5.464844 L 10.066406 -11.445312 L 7.445312 -11.445312 L 5.101562 -7.5625 L 2.765625 -11.445312 L 0.132812 -11.445312 L 3.921875 -5.433594 Z M 3.921875 0 "/></g></g></g><g fill="#5d9ad8" fill-opacity="1"><g transform="translate(156.8011, 27.697415)"><g><path d="M 1.390625 -1.734375 L 1.390625 -1.453125 L 0.890625 -1.453125 L 0.890625 0 L 0.546875 0 L 0.546875 -1.453125 L 0.046875 -1.453125 L 0.046875 -1.734375 Z M 1.390625 -1.734375 "/></g></g></g><g fill="#5d9ad8" fill-opacity="1"><g transform="translate(158.246302, 27.697415)"><g><path d="M 0.546875 0 L 0.21875 0 L 0.21875 -1.734375 L 0.671875 -1.734375 L 1.109375 -0.453125 L 1.140625 -0.453125 L 1.578125 -1.734375 L 2.015625 -1.734375 L 2.015625 0 L 1.6875 0 L 1.6875 -1.15625 L 1.65625 -1.15625 L 1.265625 0 L 0.96875 0 L 0.578125 -1.15625 L 0.546875 -1.15625 Z M 0.546875 0 "/></g></g></g></svg>