<svg xmlns="http://www.w3.org/2000/svg" xmlns:xlink="http://www.w3.org/1999/xlink" width="300" zoomAndPan="magnify" viewBox="0 0 224.87999 449.999984" height="600" preserveAspectRatio="xMidYMid meet" version="1.0"><defs><g/><clipPath id="7e45b55e4e"><path d="M 0 0.121094 L 224.761719 0.121094 L 224.761719 449.878906 L 0 449.878906 Z M 0 0.121094 " clip-rule="nonzero"/></clipPath><clipPath id="02877351b0"><path d="M 25.871094 119.160156 L 196.78125 119.160156 L 196.78125 290.070312 L 25.871094 290.070312 Z M 25.871094 119.160156 " clip-rule="nonzero"/></clipPath></defs><g clip-path="url(#7e45b55e4e)"><path fill="#ffffff" d="M 0 0.121094 L 224.878906 0.121094 L 224.878906 457.375 L 0 457.375 Z M 0 0.121094 " fill-opacity="1" fill-rule="nonzero"/><path fill="#ffffff" d="M 0 0.121094 L 224.878906 0.121094 L 224.878906 449.878906 L 0 449.878906 Z M 0 0.121094 " fill-opacity="1" fill-rule="nonzero"/><path fill="#bdd1a0" d="M 0 0.121094 L 224.878906 0.121094 L 224.878906 449.878906 L 0 449.878906 Z M 0 0.121094 " fill-opacity="1" fill-rule="nonzero"/></g><g clip-path="url(#02877351b0)"><path fill="#332920" d="M 196.824219 204.652344 C 196.824219 251.851562 158.5625 290.117188 111.359375 290.117188 C 64.160156 290.117188 25.894531 251.851562 25.894531 204.652344 C 25.894531 157.453125 64.160156 119.183594 111.359375 119.183594 C 158.5625 119.183594 196.824219 157.453125 196.824219 204.652344 " fill-opacity="1" fill-rule="nonzero"/></g><path stroke-linecap="round" transform="matrix(0.0666831, 0, 0, -0.0666831, -30.407686, 346.418072)" fill="none" stroke-linejoin="round" d="M 2235.642313 2129.710925 L 2285.610464 2250.032828 L 2335.520036 2370.29615 L 2385.488187 2250.032828 L 2435.456339 2129.710925 " stroke="#ffffff" stroke-width="100" stroke-opacity="1" stroke-miterlimit="10"/><path stroke-linecap="round" transform="matrix(0.0666831, 0, 0, -0.0666831, -30.407686, 346.418072)" fill="none" stroke-linejoin="round" d="M 2435.456339 2129.710925 L 2485.483069 2009.447603 L 2535.392641 1889.18428 L 2635.328943 2129.710925 " stroke="#ffffff" stroke-width="100" stroke-opacity="1" stroke-miterlimit="10"/><path stroke-linecap="round" transform="matrix(0.0666831, 0, 0, -0.0666831, -30.407686, 346.418072)" fill="none" stroke-linejoin="round" d="M 2635.328943 2129.710925 L 2685.297094 2250.032828 L 2735.265246 2370.29615 L 2785.233397 2250.032828 L 2835.260127 2129.710925 " stroke="#ffffff" stroke-width="100" stroke-opacity="1" stroke-miterlimit="10"/><path stroke-linecap="round" transform="matrix(0.0666831, 0, 0, -0.0666831, -30.407686, 346.418072)" fill="none" stroke-linejoin="round" d="M 2835.260127 2129.710925 L 2935.13785 1889.18428 L 3035.074153 2129.710925 " stroke="#ffffff" stroke-width="100" stroke-opacity="1" stroke-miterlimit="10"/><path stroke-linecap="round" transform="matrix(0.0666831, 0, 0, -0.0666831, -30.407686, 346.418072)" fill="none" stroke-linejoin="round" d="M 3035.074153 2129.710925 L 3144.676041 2129.710925 " stroke="#ffffff" stroke-width="100" stroke-opacity="1" stroke-miterlimit="10"/><path stroke-linecap="round" transform="matrix(0.0666831, 0, 0, -0.0666831, -30.407686, 346.418072)" fill="none" stroke-linejoin="round" d="M 2125.981845 2129.710925 L 2235.642313 2129.710925 " stroke="#ffffff" stroke-width="100" stroke-opacity="1" stroke-miterlimit="10"/><path stroke-linecap="round" transform="matrix(0.0666831, 0, 0, -0.0666831, -30.407686, 346.418072)" fill="none" stroke-linejoin="round" d="M 2951.540057 2456.993529 C 2946.502237 2699.394712 2745.985259 2891.769166 2503.584076 2886.731345 C 2314.197167 2882.806531 2155.33008 2759.438505 2097.336563 2590.1443 C 2079.411294 2642.572782 2051.410384 2692.423775 2012.865198 2736.533995 C 1853.470897 2919.184282 1576.156444 2937.988241 1393.564736 2778.53536 C 1210.914448 2619.082479 1192.169069 2341.826606 1351.563371 2159.176318 L 2097.453722 1304.797086 L 2430.067042 1687.144241 " stroke="#ffffff" stroke-width="100" stroke-opacity="1" stroke-miterlimit="10"/><g fill="#332920" fill-opacity="1"><g transform="translate(22.499711, 323.691372)"><g><path d="M 10.492188 0.253906 C 15.871094 0.253906 19.855469 -3.425781 19.855469 -9.171875 C 19.855469 -14.929688 15.871094 -18.585938 10.492188 -18.585938 C 5.101562 -18.585938 1.117188 -14.929688 1.117188 -9.171875 C 1.117188 -3.425781 5.101562 0.253906 10.492188 0.253906 Z M 10.492188 -3.234375 C 7.332031 -3.234375 4.910156 -5.453125 4.910156 -9.171875 C 4.910156 -12.875 7.332031 -15.082031 10.492188 -15.082031 C 13.648438 -15.082031 16.074219 -12.875 16.074219 -9.171875 C 16.074219 -5.453125 13.648438 -3.234375 10.492188 -3.234375 Z M 10.492188 -3.234375 "/></g></g></g><g fill="#332920" fill-opacity="1"><g transform="translate(43.48025, 323.691372)"><g><path d="M 14.894531 -18.332031 L 14.894531 -5.304688 L 6.722656 -18.332031 L 2.371094 -18.332031 L 2.371094 0 L 6.164062 0 L 6.164062 -13.105469 L 14.285156 0 L 18.6875 0 L 18.6875 -18.332031 Z M 14.894531 -18.332031 "/></g></g></g><g fill="#332920" fill-opacity="1"><g transform="translate(64.536899, 323.691372)"><g><path d="M 10.492188 0.253906 C 14.578125 0.253906 17.847656 -1.851562 19.15625 -5.328125 L 15.605469 -6.621094 C 14.792969 -4.492188 12.851562 -3.246094 10.492188 -3.246094 C 7.332031 -3.246094 4.910156 -5.46875 4.910156 -9.171875 C 4.910156 -12.875 7.332031 -15.082031 10.492188 -15.082031 C 12.851562 -15.082031 14.792969 -13.851562 15.605469 -11.722656 L 19.15625 -13.015625 C 17.847656 -16.492188 14.578125 -18.585938 10.492188 -18.585938 C 5.101562 -18.585938 1.117188 -14.929688 1.117188 -9.171875 C 1.117188 -3.414062 5.101562 0.253906 10.492188 0.253906 Z M 10.492188 0.253906 "/></g></g></g><g fill="#332920" fill-opacity="1"><g transform="translate(84.439236, 323.691372)"><g><path d="M 10.492188 0.253906 C 15.871094 0.253906 19.855469 -3.425781 19.855469 -9.171875 C 19.855469 -14.929688 15.871094 -18.585938 10.492188 -18.585938 C 5.101562 -18.585938 1.117188 -14.929688 1.117188 -9.171875 C 1.117188 -3.425781 5.101562 0.253906 10.492188 0.253906 Z M 10.492188 -3.234375 C 7.332031 -3.234375 4.910156 -5.453125 4.910156 -9.171875 C 4.910156 -12.875 7.332031 -15.082031 10.492188 -15.082031 C 13.648438 -15.082031 16.074219 -12.875 16.074219 -9.171875 C 16.074219 -5.453125 13.648438 -3.234375 10.492188 -3.234375 Z M 10.492188 -3.234375 "/></g></g></g><g fill="#332920" fill-opacity="1"><g transform="translate(105.419776, 323.691372)"><g/></g></g><g fill="#332920" fill-opacity="1"><g transform="translate(112.168051, 323.691372)"><g><path d="M 12.214844 -9.679688 C 13.648438 -10.378906 14.347656 -11.695312 14.347656 -13.308594 C 14.347656 -16.429688 12.265625 -18.332031 8.308594 -18.332031 L 2.371094 -18.332031 L 2.371094 0 L 9.921875 0 C 13.789062 0 15.667969 -2.042969 15.667969 -5.136719 C 15.667969 -7.75 14.285156 -9.109375 12.214844 -9.679688 Z M 8.347656 -15.171875 C 10.046875 -15.171875 10.847656 -14.285156 10.847656 -13.066406 C 10.847656 -11.824219 10.136719 -10.859375 8.511719 -10.859375 L 6.039062 -10.859375 L 6.039062 -15.171875 Z M 9.210938 -3.261719 L 6.039062 -3.261719 L 6.039062 -7.929688 L 9.132812 -7.929688 C 11.277344 -7.929688 11.976562 -6.773438 11.976562 -5.554688 C 11.976562 -4.363281 11.265625 -3.261719 9.210938 -3.261719 Z M 9.210938 -3.261719 "/></g></g></g><g fill="#332920" fill-opacity="1"><g transform="translate(128.848469, 323.691372)"><g><path d="M 9.160156 0.253906 C 13.195312 0.253906 16.351562 -1.800781 16.351562 -6.417969 L 16.351562 -18.332031 L 12.546875 -18.332031 L 12.546875 -6.9375 C 12.546875 -4.160156 11.050781 -3.109375 9.160156 -3.109375 C 7.28125 -3.109375 5.796875 -4.148438 5.796875 -6.9375 L 5.796875 -18.332031 L 1.992188 -18.332031 L 1.992188 -6.417969 C 1.992188 -1.800781 5.136719 0.253906 9.160156 0.253906 Z M 9.160156 0.253906 "/></g></g></g><g fill="#332920" fill-opacity="1"><g transform="translate(147.190585, 323.691372)"><g><path d="M 2.371094 0 L 9.007812 0 C 14.855469 0 17.746094 -3.679688 17.746094 -9.171875 C 17.746094 -14.652344 14.855469 -18.332031 9.007812 -18.332031 L 2.371094 -18.332031 Z M 6.179688 -3.363281 L 6.179688 -14.980469 L 8.816406 -14.980469 C 12.191406 -14.980469 13.738281 -12.875 13.738281 -9.171875 C 13.738281 -5.46875 12.191406 -3.363281 8.816406 -3.363281 Z M 6.179688 -3.363281 "/></g></g></g><g fill="#332920" fill-opacity="1"><g transform="translate(166.128884, 323.691372)"><g><path d="M 2.371094 0 L 9.007812 0 C 14.855469 0 17.746094 -3.679688 17.746094 -9.171875 C 17.746094 -14.652344 14.855469 -18.332031 9.007812 -18.332031 L 2.371094 -18.332031 Z M 6.179688 -3.363281 L 6.179688 -14.980469 L 8.816406 -14.980469 C 12.191406 -14.980469 13.738281 -12.875 13.738281 -9.171875 C 13.738281 -5.46875 12.191406 -3.363281 8.816406 -3.363281 Z M 6.179688 -3.363281 "/></g></g></g><g fill="#332920" fill-opacity="1"><g transform="translate(185.067183, 323.691372)"><g><path d="M 6.28125 0 L 10.097656 0 L 10.097656 -8.753906 L 16.125 -18.332031 L 11.925781 -18.332031 L 8.167969 -12.113281 L 4.425781 -18.332031 L 0.214844 -18.332031 L 6.28125 -8.703125 Z M 6.28125 0 "/></g></g></g></svg>