<svg xmlns="http://www.w3.org/2000/svg" xmlns:xlink="http://www.w3.org/1999/xlink" width="500" zoomAndPan="magnify" viewBox="0 0 375 749.999995" height="1000" preserveAspectRatio="xMidYMid meet" version="1.0"><defs><g/><clipPath id="3f813fb6d0"><path d="M 79.585938 222.789062 L 295.585938 222.789062 L 295.585938 438.789062 L 79.585938 438.789062 Z M 79.585938 222.789062 " clip-rule="nonzero"/></clipPath></defs><rect x="-37.5" width="450" fill="#ffffff" y="-74.999999" height="899.999994" fill-opacity="1"/><rect x="-37.5" width="450" fill="#ffffff" y="-74.999999" height="899.999994" fill-opacity="1"/><rect x="-37.5" width="450" fill="#fff4bd" y="-74.999999" height="899.999994" fill-opacity="1"/><g clip-path="url(#3f813fb6d0)"><path fill="#5d9ad8" d="M 295.644531 330.832031 C 295.644531 390.488281 247.28125 438.847656 187.628906 438.847656 C 127.976562 438.847656 79.613281 390.488281 79.613281 330.832031 C 79.613281 271.179688 127.976562 222.816406 187.628906 222.816406 C 247.28125 222.816406 295.644531 271.179688 295.644531 330.832031 " fill-opacity="1" fill-rule="nonzero"/></g><path stroke-linecap="round" transform="matrix(0.0842762, 0, 0, -0.0842762, 8.458617, 510.001411)" fill="none" stroke-linejoin="round" d="M 2235.607205 2129.731757 L 2285.573097 2250.057781 L 2335.538988 2370.291105 L 2385.50488 2250.057781 L 2435.470771 2129.731757 " stroke="#ffffff" stroke-width="100" stroke-opacity="1" stroke-miterlimit="10"/><path stroke-linecap="round" transform="matrix(0.0842762, 0, 0, -0.0842762, 8.458617, 510.001411)" fill="none" stroke-linejoin="round" d="M 2435.470771 2129.731757 L 2485.483013 2009.452083 L 2535.402554 1889.172409 L 2635.334337 2129.731757 " stroke="#ffffff" stroke-width="100" stroke-opacity="1" stroke-miterlimit="10"/><path stroke-linecap="round" transform="matrix(0.0842762, 0, 0, -0.0842762, 8.458617, 510.001411)" fill="none" stroke-linejoin="round" d="M 2635.334337 2129.731757 L 2685.300229 2250.057781 L 2735.26612 2370.291105 L 2785.232012 2250.057781 L 2835.244254 2129.731757 " stroke="#ffffff" stroke-width="100" stroke-opacity="1" stroke-miterlimit="10"/><path stroke-linecap="round" transform="matrix(0.0842762, 0, 0, -0.0842762, 8.458617, 510.001411)" fill="none" stroke-linejoin="round" d="M 2835.244254 2129.731757 L 2935.176037 1889.172409 L 3035.061469 2129.731757 " stroke="#ffffff" stroke-width="100" stroke-opacity="1" stroke-miterlimit="10"/><path stroke-linecap="round" transform="matrix(0.0842762, 0, 0, -0.0842762, 8.458617, 510.001411)" fill="none" stroke-linejoin="round" d="M 3035.061469 2129.731757 L 3144.680517 2129.731757 " stroke="#ffffff" stroke-width="100" stroke-opacity="1" stroke-miterlimit="10"/><path stroke-linecap="round" transform="matrix(0.0842762, 0, 0, -0.0842762, 8.458617, 510.001411)" fill="none" stroke-linejoin="round" d="M 2125.988157 2129.731757 L 2235.607205 2129.731757 " stroke="#ffffff" stroke-width="100" stroke-opacity="1" stroke-miterlimit="10"/><path stroke-linecap="round" transform="matrix(0.0842762, 0, 0, -0.0842762, 8.458617, 510.001411)" fill="none" stroke-linejoin="round" d="M 2951.584131 2457.012981 C 2946.531921 2699.380001 2745.973097 2891.781128 2503.606078 2886.728918 C 2314.217736 2882.789122 2155.374405 2759.450312 2097.343518 2590.178108 C 2079.405856 2642.554228 2051.410124 2692.427418 2012.892818 2736.553141 C 1853.493281 2919.174303 1576.177948 2937.992625 1393.556786 2778.500387 C 1210.935625 2619.10085 1192.163652 2341.785517 1351.563189 2159.164355 L 2097.48257 1304.831041 L 2430.047757 1687.130367 " stroke="#ffffff" stroke-width="100" stroke-opacity="1" stroke-miterlimit="10"/><g fill="#5d9ad8" fill-opacity="1"><g transform="translate(93.809331, 469.704573)"><g><path d="M 10.730469 0.257812 C 16.230469 0.257812 20.304688 -3.503906 20.304688 -9.378906 C 20.304688 -15.269531 16.230469 -19.007812 10.730469 -19.007812 C 5.214844 -19.007812 1.140625 -15.269531 1.140625 -9.378906 C 1.140625 -3.503906 5.214844 0.257812 10.730469 0.257812 Z M 10.730469 -3.308594 C 7.5 -3.308594 5.019531 -5.578125 5.019531 -9.378906 C 5.019531 -13.167969 7.5 -15.425781 10.730469 -15.425781 C 13.960938 -15.425781 16.4375 -13.167969 16.4375 -9.378906 C 16.4375 -5.578125 13.960938 -3.308594 10.730469 -3.308594 Z M 10.730469 -3.308594 "/></g></g></g><g fill="#5d9ad8" fill-opacity="1"><g transform="translate(115.264816, 469.704573)"><g><path d="M 15.234375 -18.75 L 15.234375 -5.421875 L 6.875 -18.75 L 2.425781 -18.75 L 2.425781 0 L 6.304688 0 L 6.304688 -13.402344 L 14.609375 0 L 19.113281 0 L 19.113281 -18.75 Z M 15.234375 -18.75 "/></g></g></g><g fill="#5d9ad8" fill-opacity="1"><g transform="translate(136.798132, 469.704573)"><g><path d="M 10.730469 0.257812 C 14.90625 0.257812 18.253906 -1.894531 19.59375 -5.449219 L 15.960938 -6.773438 C 15.128906 -4.59375 13.144531 -3.320312 10.730469 -3.320312 C 7.5 -3.320312 5.019531 -5.59375 5.019531 -9.378906 C 5.019531 -13.167969 7.5 -15.425781 10.730469 -15.425781 C 13.144531 -15.425781 15.128906 -14.167969 15.960938 -11.988281 L 19.59375 -13.3125 C 18.253906 -16.867188 14.90625 -19.007812 10.730469 -19.007812 C 5.214844 -19.007812 1.140625 -15.269531 1.140625 -9.378906 C 1.140625 -3.492188 5.214844 0.257812 10.730469 0.257812 Z M 10.730469 0.257812 "/></g></g></g><g fill="#5d9ad8" fill-opacity="1"><g transform="translate(157.151014, 469.704573)"><g><path d="M 10.730469 0.257812 C 16.230469 0.257812 20.304688 -3.503906 20.304688 -9.378906 C 20.304688 -15.269531 16.230469 -19.007812 10.730469 -19.007812 C 5.214844 -19.007812 1.140625 -15.269531 1.140625 -9.378906 C 1.140625 -3.503906 5.214844 0.257812 10.730469 0.257812 Z M 10.730469 -3.308594 C 7.5 -3.308594 5.019531 -5.578125 5.019531 -9.378906 C 5.019531 -13.167969 7.5 -15.425781 10.730469 -15.425781 C 13.960938 -15.425781 16.4375 -13.167969 16.4375 -9.378906 C 16.4375 -5.578125 13.960938 -3.308594 10.730469 -3.308594 Z M 10.730469 -3.308594 "/></g></g></g><g fill="#5d9ad8" fill-opacity="1"><g transform="translate(178.606499, 469.704573)"><g/></g></g><g fill="#5d9ad8" fill-opacity="1"><g transform="translate(185.507538, 469.704573)"><g><path d="M 12.496094 -9.898438 C 13.960938 -10.613281 14.675781 -11.960938 14.675781 -13.609375 C 14.675781 -16.800781 12.546875 -18.75 8.5 -18.75 L 2.425781 -18.75 L 2.425781 0 L 10.144531 0 C 14.105469 0 16.023438 -2.089844 16.023438 -5.253906 C 16.023438 -7.925781 14.609375 -9.316406 12.496094 -9.898438 Z M 8.539062 -15.519531 C 10.277344 -15.519531 11.09375 -14.609375 11.09375 -13.363281 C 11.09375 -12.09375 10.367188 -11.105469 8.707031 -11.105469 L 6.175781 -11.105469 L 6.175781 -15.519531 Z M 9.417969 -3.335938 L 6.175781 -3.335938 L 6.175781 -8.109375 L 9.34375 -8.109375 C 11.535156 -8.109375 12.25 -6.929688 12.25 -5.683594 C 12.25 -4.464844 11.523438 -3.335938 9.417969 -3.335938 Z M 9.417969 -3.335938 "/></g></g></g><g fill="#5d9ad8" fill-opacity="1"><g transform="translate(202.565563, 469.704573)"><g><path d="M 9.367188 0.257812 C 13.492188 0.257812 16.722656 -1.84375 16.722656 -6.566406 L 16.722656 -18.75 L 12.832031 -18.75 L 12.832031 -7.097656 C 12.832031 -4.253906 11.300781 -3.179688 9.367188 -3.179688 C 7.449219 -3.179688 5.929688 -4.242188 5.929688 -7.097656 L 5.929688 -18.75 L 2.035156 -18.75 L 2.035156 -6.566406 C 2.035156 -1.84375 5.253906 0.257812 9.367188 0.257812 Z M 9.367188 0.257812 "/></g></g></g><g fill="#5d9ad8" fill-opacity="1"><g transform="translate(221.322898, 469.704573)"><g><path d="M 2.425781 0 L 9.210938 0 C 15.195312 0 18.152344 -3.761719 18.152344 -9.378906 C 18.152344 -14.984375 15.195312 -18.75 9.210938 -18.75 L 2.425781 -18.75 Z M 6.320312 -3.4375 L 6.320312 -15.324219 L 9.015625 -15.324219 C 12.46875 -15.324219 14.050781 -13.167969 14.050781 -9.378906 C 14.050781 -5.59375 12.46875 -3.4375 9.015625 -3.4375 Z M 6.320312 -3.4375 "/></g></g></g><g fill="#5d9ad8" fill-opacity="1"><g transform="translate(240.689916, 469.704573)"><g><path d="M 2.425781 0 L 9.210938 0 C 15.195312 0 18.152344 -3.761719 18.152344 -9.378906 C 18.152344 -14.984375 15.195312 -18.75 9.210938 -18.75 L 2.425781 -18.75 Z M 6.320312 -3.4375 L 6.320312 -15.324219 L 9.015625 -15.324219 C 12.46875 -15.324219 14.050781 -13.167969 14.050781 -9.378906 C 14.050781 -5.59375 12.46875 -3.4375 9.015625 -3.4375 Z M 6.320312 -3.4375 "/></g></g></g><g fill="#5d9ad8" fill-opacity="1"><g transform="translate(260.056935, 469.704573)"><g><path d="M 6.421875 0 L 10.328125 0 L 10.328125 -8.953125 L 16.492188 -18.75 L 12.195312 -18.75 L 8.355469 -12.390625 L 4.527344 -18.75 L 0.21875 -18.75 L 6.421875 -8.902344 Z M 6.421875 0 "/></g></g></g><g fill="#5d9ad8" fill-opacity="1"><g transform="translate(276.797596, 469.800621)"><g><path d="M 5.144531 -7.253906 L 0.199219 -7.253906 L 0.199219 -5.929688 L 1.933594 -5.929688 L 1.933594 0 L 3.425781 0 L 3.425781 -5.929688 L 5.144531 -5.929688 Z M 5.144531 -7.253906 "/></g></g></g><g fill="#5d9ad8" fill-opacity="1"><g transform="translate(282.142021, 469.800621)"><g><path d="M 9.253906 0 L 8.65625 -7.253906 L 6.507812 -7.253906 L 4.941406 -2.699219 L 3.394531 -7.253906 L 1.246094 -7.253906 L 0.636719 0 L 2.144531 0 L 2.625 -5.46875 L 4.464844 0 L 5.4375 0 L 7.273438 -5.46875 L 7.753906 0 Z M 9.253906 0 "/></g></g></g></svg>