<svg xmlns="http://www.w3.org/2000/svg" xmlns:xlink="http://www.w3.org/1999/xlink" width="200" zoomAndPan="magnify" viewBox="0 0 150 187.499995" height="250" preserveAspectRatio="xMidYMid meet" version="1.0"><defs><clipPath id="61e98581ce"><path d="M 29.035156 33.117188 L 149.464844 33.117188 L 149.464844 153.546875 L 29.035156 153.546875 Z M 29.035156 33.117188 " clip-rule="nonzero"/></clipPath><clipPath id="016794fe01"><path d="M 38 100 L 140 100 L 140 153.546875 L 38 153.546875 Z M 38 100 " clip-rule="nonzero"/></clipPath></defs><g clip-path="url(#61e98581ce)"><path fill="#fcd354" d="M 149.464844 93.332031 C 149.464844 95.304688 149.367188 97.273438 149.171875 99.234375 C 148.980469 101.195312 148.691406 103.144531 148.304688 105.078125 C 147.921875 107.011719 147.441406 108.925781 146.871094 110.8125 C 146.296875 112.699219 145.632812 114.554688 144.878906 116.375 C 144.125 118.195312 143.28125 119.976562 142.351562 121.71875 C 141.421875 123.457031 140.410156 125.144531 139.316406 126.785156 C 138.21875 128.425781 137.046875 130.007812 135.796875 131.53125 C 134.542969 133.054688 133.222656 134.515625 131.828125 135.910156 C 130.433594 137.304688 128.972656 138.628906 127.449219 139.878906 C 125.925781 141.128906 124.34375 142.304688 122.703125 143.398438 C 121.0625 144.496094 119.375 145.507812 117.632812 146.4375 C 115.894531 147.367188 114.113281 148.207031 112.292969 148.964844 C 110.46875 149.71875 108.617188 150.382812 106.726562 150.953125 C 104.839844 151.527344 102.929688 152.003906 100.996094 152.390625 C 99.0625 152.773438 97.113281 153.0625 95.152344 153.257812 C 93.1875 153.449219 91.222656 153.546875 89.25 153.546875 C 87.277344 153.546875 85.308594 153.449219 83.347656 153.257812 C 81.382812 153.0625 79.4375 152.773438 77.5 152.390625 C 75.566406 152.003906 73.65625 151.527344 71.769531 150.953125 C 69.882812 150.382812 68.027344 149.71875 66.207031 148.964844 C 64.382812 148.207031 62.601562 147.367188 60.863281 146.4375 C 59.125 145.507812 57.433594 144.496094 55.796875 143.398438 C 54.15625 142.304688 52.574219 141.128906 51.050781 139.878906 C 49.523438 138.628906 48.066406 137.304688 46.671875 135.910156 C 45.277344 134.515625 43.953125 133.054688 42.703125 131.53125 C 41.453125 130.007812 40.277344 128.425781 39.183594 126.785156 C 38.085938 125.144531 37.074219 123.457031 36.144531 121.71875 C 35.214844 119.976562 34.371094 118.195312 33.617188 116.375 C 32.863281 114.554688 32.199219 112.699219 31.628906 110.8125 C 31.054688 108.925781 30.578125 107.011719 30.191406 105.078125 C 29.808594 103.144531 29.519531 101.195312 29.324219 99.234375 C 29.132812 97.273438 29.035156 95.304688 29.035156 93.332031 C 29.035156 91.359375 29.132812 89.394531 29.324219 87.429688 C 29.519531 85.46875 29.808594 83.519531 30.191406 81.585938 C 30.578125 79.652344 31.054688 77.738281 31.628906 75.851562 C 32.199219 73.964844 32.863281 72.109375 33.617188 70.289062 C 34.371094 68.46875 35.214844 66.6875 36.144531 64.945312 C 37.074219 63.207031 38.085938 61.519531 39.183594 59.878906 C 40.277344 58.238281 41.453125 56.65625 42.703125 55.132812 C 43.953125 53.609375 45.277344 52.148438 46.671875 50.753906 C 48.066406 49.359375 49.523438 48.035156 51.050781 46.785156 C 52.574219 45.535156 54.15625 44.359375 55.796875 43.265625 C 57.433594 42.171875 59.125 41.15625 60.863281 40.226562 C 62.601562 39.296875 64.382812 38.457031 66.207031 37.703125 C 68.027344 36.945312 69.882812 36.28125 71.769531 35.710938 C 73.65625 35.136719 75.566406 34.660156 77.5 34.273438 C 79.4375 33.890625 81.382812 33.601562 83.347656 33.40625 C 85.308594 33.214844 87.277344 33.117188 89.25 33.117188 C 91.222656 33.117188 93.1875 33.214844 95.152344 33.40625 C 97.113281 33.601562 99.0625 33.890625 100.996094 34.273438 C 102.929688 34.660156 104.839844 35.136719 106.726562 35.710938 C 108.617188 36.28125 110.46875 36.945312 112.292969 37.703125 C 114.113281 38.457031 115.894531 39.296875 117.632812 40.226562 C 119.375 41.15625 121.0625 42.171875 122.703125 43.265625 C 124.34375 44.359375 125.925781 45.535156 127.449219 46.785156 C 128.972656 48.035156 130.433594 49.359375 131.828125 50.753906 C 133.222656 52.148438 134.542969 53.609375 135.796875 55.132812 C 137.046875 56.65625 138.21875 58.238281 139.316406 59.878906 C 140.410156 61.519531 141.421875 63.207031 142.351562 64.945312 C 143.28125 66.6875 144.125 68.46875 144.878906 70.289062 C 145.632812 72.109375 146.296875 73.964844 146.871094 75.851562 C 147.441406 77.738281 147.921875 79.652344 148.304688 81.585938 C 148.691406 83.519531 148.980469 85.46875 149.171875 87.429688 C 149.367188 89.394531 149.464844 91.359375 149.464844 93.332031 Z M 149.464844 93.332031 " fill-opacity="1" fill-rule="nonzero"/></g><path fill="#ffb125" d="M 111.828125 70.75 C 111.828125 71.492188 111.792969 72.230469 111.722656 72.964844 C 111.648438 73.699219 111.539062 74.429688 111.394531 75.15625 C 111.25 75.882812 111.070312 76.597656 110.855469 77.304688 C 110.640625 78.015625 110.394531 78.710938 110.109375 79.394531 C 109.828125 80.074219 109.511719 80.742188 109.164062 81.394531 C 108.816406 82.046875 108.433594 82.683594 108.023438 83.296875 C 107.613281 83.910156 107.171875 84.503906 106.703125 85.078125 C 106.234375 85.648438 105.738281 86.195312 105.214844 86.71875 C 104.691406 87.242188 104.144531 87.738281 103.574219 88.207031 C 103.003906 88.675781 102.410156 89.117188 101.792969 89.527344 C 101.179688 89.9375 100.546875 90.316406 99.894531 90.664062 C 99.242188 91.015625 98.574219 91.332031 97.890625 91.613281 C 97.207031 91.894531 96.511719 92.144531 95.804688 92.359375 C 95.097656 92.574219 94.378906 92.753906 93.652344 92.898438 C 92.929688 93.042969 92.199219 93.152344 91.460938 93.222656 C 90.726562 93.296875 89.988281 93.332031 89.25 93.332031 C 88.507812 93.332031 87.773438 93.296875 87.035156 93.222656 C 86.300781 93.152344 85.570312 93.042969 84.84375 92.898438 C 84.117188 92.753906 83.402344 92.574219 82.695312 92.359375 C 81.988281 92.144531 81.292969 91.894531 80.609375 91.613281 C 79.925781 91.332031 79.257812 91.015625 78.605469 90.664062 C 77.953125 90.316406 77.320312 89.9375 76.703125 89.527344 C 76.089844 89.117188 75.496094 88.675781 74.925781 88.207031 C 74.351562 87.738281 73.804688 87.242188 73.28125 86.71875 C 72.757812 86.195312 72.261719 85.648438 71.792969 85.078125 C 71.324219 84.503906 70.886719 83.910156 70.472656 83.296875 C 70.0625 82.683594 69.683594 82.046875 69.335938 81.394531 C 68.984375 80.742188 68.671875 80.074219 68.386719 79.394531 C 68.105469 78.710938 67.855469 78.015625 67.640625 77.304688 C 67.425781 76.597656 67.246094 75.882812 67.101562 75.15625 C 66.957031 74.429688 66.851562 73.699219 66.777344 72.964844 C 66.703125 72.230469 66.667969 71.492188 66.667969 70.75 C 66.667969 70.011719 66.703125 69.273438 66.777344 68.539062 C 66.851562 67.800781 66.957031 67.070312 67.101562 66.347656 C 67.246094 65.621094 67.425781 64.90625 67.640625 64.195312 C 67.855469 63.488281 68.105469 62.792969 68.386719 62.109375 C 68.671875 61.425781 68.984375 60.757812 69.335938 60.105469 C 69.683594 59.457031 70.0625 58.820312 70.472656 58.207031 C 70.886719 57.59375 71.324219 57 71.792969 56.425781 C 72.261719 55.855469 72.757812 55.308594 73.28125 54.785156 C 73.804688 54.261719 74.351562 53.765625 74.925781 53.296875 C 75.496094 52.828125 76.089844 52.386719 76.703125 51.976562 C 77.320312 51.566406 77.953125 51.1875 78.605469 50.835938 C 79.257812 50.488281 79.925781 50.171875 80.609375 49.890625 C 81.292969 49.605469 81.988281 49.359375 82.695312 49.144531 C 83.402344 48.929688 84.117188 48.75 84.84375 48.605469 C 85.570312 48.460938 86.300781 48.351562 87.035156 48.28125 C 87.773438 48.207031 88.507812 48.171875 89.25 48.171875 C 89.988281 48.171875 90.726562 48.207031 91.460938 48.28125 C 92.199219 48.351562 92.929688 48.460938 93.652344 48.605469 C 94.378906 48.75 95.097656 48.929688 95.804688 49.144531 C 96.511719 49.359375 97.207031 49.605469 97.890625 49.890625 C 98.574219 50.171875 99.242188 50.488281 99.894531 50.835938 C 100.546875 51.1875 101.179688 51.566406 101.792969 51.976562 C 102.410156 52.386719 103.003906 52.828125 103.574219 53.296875 C 104.144531 53.765625 104.691406 54.261719 105.214844 54.785156 C 105.738281 55.308594 106.234375 55.855469 106.703125 56.425781 C 107.171875 57 107.613281 57.59375 108.023438 58.207031 C 108.433594 58.820312 108.816406 59.457031 109.164062 60.105469 C 109.511719 60.757812 109.828125 61.425781 110.109375 62.109375 C 110.394531 62.792969 110.640625 63.488281 110.855469 64.195312 C 111.070312 64.90625 111.25 65.621094 111.394531 66.347656 C 111.539062 67.070312 111.648438 67.800781 111.722656 68.539062 C 111.792969 69.273438 111.828125 70.011719 111.828125 70.75 Z M 111.828125 70.75 " fill-opacity="1" fill-rule="nonzero"/><g clip-path="url(#016794fe01)"><path fill="#ffb125" d="M 89.25 100.859375 C 67.21875 100.859375 47.9375 110.882812 38.695312 125.929688 C 39.371094 126.984375 40.082031 128.015625 40.824219 129.023438 C 41.5625 130.03125 42.335938 131.019531 43.136719 131.980469 C 43.941406 132.941406 44.773438 133.875 45.632812 134.785156 C 46.492188 135.691406 47.382812 136.574219 48.296875 137.425781 C 49.214844 138.28125 50.15625 139.105469 51.125 139.898438 C 52.089844 140.695312 53.082031 141.457031 54.097656 142.191406 C 55.113281 142.921875 56.152344 143.621094 57.210938 144.289062 C 58.269531 144.957031 59.347656 145.589844 60.445312 146.191406 C 61.546875 146.792969 62.660156 147.359375 63.796875 147.886719 C 64.929688 148.417969 66.078125 148.914062 67.246094 149.371094 C 68.410156 149.832031 69.585938 150.25 70.777344 150.636719 C 71.96875 151.023438 73.171875 151.367188 74.386719 151.679688 C 75.597656 151.988281 76.820312 152.261719 78.050781 152.492188 C 79.28125 152.726562 80.515625 152.921875 81.757812 153.078125 C 83 153.234375 84.246094 153.351562 85.496094 153.429688 C 86.746094 153.507812 87.996094 153.546875 89.25 153.546875 C 90.5 153.546875 91.75 153.507812 93 153.429688 C 94.25 153.351562 95.496094 153.234375 96.738281 153.078125 C 97.980469 152.921875 99.21875 152.726562 100.449219 152.492188 C 101.675781 152.261719 102.898438 151.988281 104.113281 151.679688 C 105.324219 151.367188 106.527344 151.023438 107.71875 150.636719 C 108.910156 150.25 110.089844 149.832031 111.253906 149.371094 C 112.417969 148.914062 113.566406 148.417969 114.703125 147.886719 C 115.835938 147.359375 116.953125 146.792969 118.050781 146.191406 C 119.148438 145.589844 120.230469 144.957031 121.289062 144.289062 C 122.347656 143.621094 123.382812 142.921875 124.398438 142.191406 C 125.414062 141.457031 126.40625 140.695312 127.375 139.898438 C 128.339844 139.105469 129.285156 138.28125 130.199219 137.425781 C 131.117188 136.574219 132.003906 135.691406 132.863281 134.785156 C 133.726562 133.875 134.558594 132.941406 135.359375 131.980469 C 136.164062 131.019531 136.933594 130.03125 137.675781 129.023438 C 138.417969 128.015625 139.125 126.984375 139.800781 125.929688 C 130.5625 110.882812 111.277344 100.859375 89.25 100.859375 Z M 89.25 100.859375 " fill-opacity="1" fill-rule="nonzero"/></g></svg>