<svg xmlns="http://www.w3.org/2000/svg" xmlns:xlink="http://www.w3.org/1999/xlink" width="200" zoomAndPan="magnify" viewBox="0 0 150 149.999998" height="200" preserveAspectRatio="xMidYMid meet" version="1.0"><defs><g/><clipPath id="c27d8652d9"><path d="M 19.757812 61 L 112 61 L 112 99 L 19.757812 99 Z M 19.757812 61 " clip-rule="nonzero"/></clipPath></defs><g clip-path="url(#c27d8652d9)"><path fill="#8acaef" d="M 93.113281 98.582031 L 38.5 98.582031 C 28.21875 98.582031 19.8125 90.144531 19.8125 79.824219 C 19.8125 69.511719 28.21875 61.074219 38.5 61.074219 L 93.113281 61.074219 C 103.386719 61.074219 111.796875 69.511719 111.796875 79.824219 C 111.796875 90.144531 103.386719 98.582031 93.113281 98.582031 " fill-opacity="1" fill-rule="nonzero"/></g><path fill="#f14f62" d="M 93.113281 61.074219 L 65.800781 61.074219 L 65.800781 98.582031 L 93.113281 98.582031 C 103.386719 98.582031 111.796875 90.144531 111.796875 79.824219 C 111.796875 69.511719 103.386719 61.074219 93.113281 61.074219 " fill-opacity="1" fill-rule="nonzero"/><path fill="#8acaef" d="M 126.363281 46.347656 L 107.46875 97.773438 C 103.914062 107.453125 93.117188 112.457031 83.472656 108.886719 C 73.828125 105.320312 68.851562 94.480469 72.40625 84.800781 L 91.292969 33.375 C 94.851562 23.695312 105.652344 18.695312 115.289062 22.261719 C 124.933594 25.832031 129.917969 36.671875 126.363281 46.347656 " fill-opacity="1" fill-rule="nonzero"/><path fill="#f14f62" d="M 91.292969 33.375 L 81.851562 59.085938 L 116.917969 72.0625 L 126.363281 46.347656 C 129.917969 36.671875 124.933594 25.832031 115.289062 22.261719 C 105.652344 18.695312 94.851562 23.695312 91.292969 33.375 " fill-opacity="1" fill-rule="nonzero"/><g fill="#2a537d" fill-opacity="1"><g transform="translate(23.304827, 140.859717)"><g><path d="M 8.863281 -12.492188 L 0.347656 -12.492188 L 0.347656 -10.210938 L 3.328125 -10.210938 L 3.328125 0 L 5.894531 0 L 5.894531 -10.210938 L 8.863281 -10.210938 Z M 8.863281 -12.492188 "/></g></g></g><g fill="#2a537d" fill-opacity="1"><g transform="translate(32.504941, 140.859717)"><g><path d="M 8.214844 0 L 11.28125 0 L 7.953125 -4.851562 C 8.257812 -4.9375 8.515625 -5.039062 8.75 -5.167969 C 10.011719 -5.835938 10.519531 -7.082031 10.519531 -8.644531 C 10.519531 -10.132812 10.019531 -11.316406 8.800781 -11.964844 C 8.152344 -12.292969 7.3125 -12.492188 5.722656 -12.492188 L 1.617188 -12.492188 L 1.617188 0 L 4.210938 0 L 4.210938 -4.609375 L 5.308594 -4.609375 Z M 4.210938 -10.324219 L 5.359375 -10.324219 C 6.363281 -10.324219 6.925781 -10.261719 7.324219 -9.960938 C 7.695312 -9.664062 7.910156 -9.179688 7.910156 -8.480469 C 7.910156 -7.746094 7.695312 -7.253906 7.269531 -6.960938 C 6.890625 -6.691406 6.34375 -6.648438 5.359375 -6.648438 L 4.210938 -6.648438 Z M 4.210938 -10.324219 "/></g></g></g><g fill="#2a537d" fill-opacity="1"><g transform="translate(44.244805, 140.859717)"><g><path d="M 8.863281 -10.210938 L 8.863281 -12.492188 L 1.617188 -12.492188 L 1.617188 0 L 8.863281 0 L 8.863281 -2.289062 L 4.226562 -2.289062 L 4.226562 -5.117188 L 8.332031 -5.117188 L 8.332031 -7.375 L 4.226562 -7.375 L 4.226562 -10.210938 Z M 8.863281 -10.210938 "/></g></g></g><g fill="#2a537d" fill-opacity="1"><g transform="translate(54.153284, 140.859717)"><g><path d="M 9.976562 0 L 12.628906 0 L 8.03125 -12.492188 L 4.859375 -12.492188 L 0.257812 0 L 2.914062 0 L 3.820312 -2.578125 L 9.070312 -2.578125 Z M 4.582031 -4.746094 L 6.449219 -10.046875 L 8.308594 -4.746094 Z M 4.582031 -4.746094 "/></g></g></g><g fill="#2a537d" fill-opacity="1"><g transform="translate(67.033443, 140.859717)"><g><path d="M 8.863281 -12.492188 L 0.347656 -12.492188 L 0.347656 -10.210938 L 3.328125 -10.210938 L 3.328125 0 L 5.894531 0 L 5.894531 -10.210938 L 8.863281 -10.210938 Z M 8.863281 -12.492188 "/></g></g></g><g fill="#2a537d" fill-opacity="1"><g transform="translate(76.233557, 140.859717)"><g><path d="M 15.933594 0 L 14.90625 -12.492188 L 11.203125 -12.492188 L 8.507812 -4.652344 L 5.84375 -12.492188 L 2.144531 -12.492188 L 1.097656 0 L 3.691406 0 L 4.519531 -9.414062 L 7.6875 0 L 9.363281 0 L 12.527344 -9.414062 L 13.347656 0 Z M 15.933594 0 "/></g></g></g><g fill="#2a537d" fill-opacity="1"><g transform="translate(93.251608, 140.859717)"><g><path d="M 8.863281 -10.210938 L 8.863281 -12.492188 L 1.617188 -12.492188 L 1.617188 0 L 8.863281 0 L 8.863281 -2.289062 L 4.226562 -2.289062 L 4.226562 -5.117188 L 8.332031 -5.117188 L 8.332031 -7.375 L 4.226562 -7.375 L 4.226562 -10.210938 Z M 8.863281 -10.210938 "/></g></g></g><g fill="#2a537d" fill-opacity="1"><g transform="translate(103.160087, 140.859717)"><g><path d="M 10.148438 -12.492188 L 10.148438 -3.613281 L 4.582031 -12.492188 L 1.617188 -12.492188 L 1.617188 0 L 4.203125 0 L 4.203125 -8.929688 L 9.734375 0 L 12.734375 0 L 12.734375 -12.492188 Z M 10.148438 -12.492188 "/></g></g></g><g fill="#2a537d" fill-opacity="1"><g transform="translate(117.50017, 140.859717)"><g><path d="M 8.863281 -12.492188 L 0.347656 -12.492188 L 0.347656 -10.210938 L 3.328125 -10.210938 L 3.328125 0 L 5.894531 0 L 5.894531 -10.210938 L 8.863281 -10.210938 Z M 8.863281 -12.492188 "/></g></g></g></svg>